<svg width="20" height="20" viewBox="0 0 20 20" fill="none" xmlns="http://www.w3.org/2000/svg">
<g clip-path="url(#clip0_4050_19688)">
<path d="M2.5 7.50001C2.5 7.05798 2.67559 6.63406 2.98816 6.3215C3.30072 6.00894 3.72464 5.83334 4.16667 5.83334H15.8333C16.2754 5.83334 16.6993 6.00894 17.0118 6.3215C17.3244 6.63406 17.5 7.05798 17.5 7.50001V15C17.5 15.442 17.3244 15.866 17.0118 16.1785C16.6993 16.4911 16.2754 16.6667 15.8333 16.6667H4.16667C3.72464 16.6667 3.30072 16.4911 2.98816 16.1785C2.67559 15.866 2.5 15.442 2.5 15V7.50001Z" stroke="black" stroke-width="1.5" stroke-linecap="round" stroke-linejoin="round"/>
<path d="M13.3333 2.5L9.99996 5.83333L6.66663 2.5" stroke="black" stroke-width="1.5" stroke-linecap="round" stroke-linejoin="round"/>
</g>
<defs>
<clipPath id="clip0_4050_19688">
<rect width="20" height="20" fill="white"/>
</clipPath>
</defs>
</svg>
