<svg width="147" height="64" viewBox="0 0 147 64" fill="none" xmlns="http://www.w3.org/2000/svg">
<path fill-rule="evenodd" clip-rule="evenodd" d="M13.1035 43.3974H21.5881C21.5646 41.9258 22.359 38.9827 22.359 38.9827H32.525C32.8756 39.7055 33.5767 41.6003 33.5767 43.3974H42.2003C40.5643 36.1769 35.2864 20.9096 31.4734 16.8984H23.1302C20.1382 22.2947 14.7196 35.1751 13.1035 43.3974ZM27.0167 26.5435C27.1024 26.3618 27.361 26.3618 27.4467 26.5435L30.7021 33.4456H27.2317H23.7612L27.0167 26.5435Z" fill="#00008F"/>
<path fill-rule="evenodd" clip-rule="evenodd" d="M67.0176 45.3739H75.5021C75.4787 43.9024 76.2731 40.9593 76.2731 40.9593H86.4391C86.7896 41.682 87.4907 43.5768 87.4907 45.3739H96.1143C94.4784 38.1535 89.2004 22.8861 85.3874 18.875H77.0443C74.0523 24.2713 68.6337 37.1516 67.0176 45.3739ZM80.9307 28.5201C81.0165 28.3383 81.275 28.3383 81.3607 28.5201L84.6162 35.4221H81.1457H77.6753L80.9307 28.5201Z" fill="#00008F"/>
<path d="M97.3535 45.0391V19.4375H106.015V28.2546H114.059V19.4375H122.721V45.0391H114.059V34.3646H106.015V45.0391H97.3535Z" fill="#00008F"/>
<path d="M23.3789 4.42285C26.045 2.88361 29.33 2.8836 31.9961 4.42285L49.5186 14.54C52.1845 16.0792 53.827 18.9236 53.8271 22.002V42.2363C53.827 45.3147 52.1845 48.159 49.5186 49.6982L31.9961 59.8154C29.33 61.3547 26.045 61.3547 23.3789 59.8154L5.85645 49.6982C3.19048 48.159 1.54797 45.3147 1.54785 42.2363V22.002C1.54797 18.9236 3.19048 16.0792 5.85645 14.54L23.3789 4.42285Z" stroke="#00008F" stroke-width="1.7828"/>
<path d="M125.125 25.1719V19.1797H146.072V25.1719H139.191V45.1016H132.089V25.1719H125.125Z" fill="#00008F"/>
</svg>
