<svg width="20" height="20" viewBox="0 0 55 64" fill="none" xmlns="http://www.w3.org/2000/svg" color="#2955D9"><path fill-rule="evenodd" clip-rule="evenodd" d="M12.998 43.3974H21.4826C21.4591 41.9258 22.2535 38.9827 22.2535 38.9827H32.4195C32.7701 39.7055 33.4712 41.6003 33.4712 43.3974H42.0948C40.4589 36.1769 35.1809 20.9096 31.3679 16.8984H23.0247C20.0328 22.2947 14.6141 35.1751 12.998 43.3974ZM26.9112 26.5435C26.9969 26.3618 27.2555 26.3618 27.3412 26.5435L30.5967 33.4456H27.1262H23.6557L26.9112 26.5435Z" fill="#00008F"></path><path d="M23.2734 4.42285C25.9395 2.88361 29.2246 2.8836 31.8906 4.42285L49.4131 14.54C52.0791 16.0792 53.7216 18.9236 53.7217 22.002V42.2363C53.7216 45.3147 52.0791 48.159 49.4131 49.6982L31.8906 59.8154C29.2246 61.3547 25.9395 61.3547 23.2734 59.8154L5.75098 49.6982C3.08501 48.159 1.4425 45.3147 1.44238 42.2363V22.002C1.4425 18.9236 3.08501 16.0792 5.75098 14.54L23.2734 4.42285Z" stroke="#00008F" stroke-width="1.7828"></path></svg>