<?xml version="1.0" encoding="UTF-8"?>
<!DOCTYPE svg PUBLIC "-//W3C//DTD SVG 1.1//EN" "http://www.w3.org/Graphics/SVG/1.1/DTD/svg11.dtd">
<!-- Creator: CorelDRAW -->
<svg xmlns="http://www.w3.org/2000/svg" xml:space="preserve" width="1.50333in" height="0.263791in" version="1.1" style="shape-rendering:geometricPrecision; text-rendering:geometricPrecision; image-rendering:optimizeQuality; fill-rule:evenodd; clip-rule:evenodd"
viewBox="0 0 20.08 3.52"
 xmlns:xlink="http://www.w3.org/1999/xlink"
 xmlns:xodm="http://www.corel.com/coreldraw/odm/2003">
 <defs>
  <style type="text/css">
   <![CDATA[
    .fil0 {fill:#004358}
   ]]>
  </style>
 </defs>
 <g id="Слой_x0020_1">
  <metadata id="CorelCorpID_0Corel-Layer"/>
  <g id="_2804160225904">
   <g>
    <path class="fil0" d="M0 1.54c0,0.13 -0,0.18 0.01,0.3 0,0.03 0.01,0.05 0.01,0.07l0.01 0.07c0,0.01 0.01,0.02 0.01,0.03 0.03,0.1 0.06,0.19 0.1,0.28 0.05,0.1 0.13,0.23 0.2,0.32 0.02,0.03 0.03,0.04 0.06,0.04 0.02,0 0.05,-0.05 0.06,-0.07 0,-0.01 0.01,-0.01 0.01,-0.02l0.07 -0.1c0.01,-0.01 0.01,-0.02 0.02,-0.03 0.01,-0.01 0.01,-0.02 0.02,-0.03l0.26 -0.38c0,-0.01 0.01,-0.01 0.01,-0.02 0.02,-0.02 0.03,-0.04 0.04,-0.07l0.05 -0.07c0.06,-0.09 0.12,-0.18 0.18,-0.27l0.11 -0.16c0.05,-0.08 0.1,-0.16 0.16,-0.23l0.1 -0.15c0,-0.01 0.01,-0.01 0.01,-0.02 0.01,-0.01 0.01,-0.02 0.02,-0.03 0.02,-0.02 0.03,-0.04 0.05,-0.07l0.27 -0.4c0.02,-0.02 0.03,-0.04 0.04,-0.07 0.03,-0.04 0.06,-0.09 0.09,-0.13 0.02,-0.02 0.03,-0.04 0.06,-0.05 0.04,-0.01 0.09,0.02 0.1,0.06 0.01,0.04 0.02,0.08 0.02,0.11 0,0.01 0,0.01 0.01,0.02l0.06 0.28c0,0.01 0,0.01 0,0.02 0,0.01 0,0.01 0,0.02l0.01 0.05c0.01,0.04 0.02,0.08 0.03,0.11l0.02 0.07c0,0.01 0,0.01 0,0.02l0.14 0.64c0.01,0.05 0.03,0.11 0.04,0.16l0.05 0.23c0,0.01 0,0.01 0.01,0.02l0.03 0.12c0,0.01 0,0.01 0,0.02l0.03 0.14c0.01,0.06 0.02,0.13 0.04,0.18 0,0.01 0,0.02 0.01,0.02 0.01,0.03 0.01,0.06 0.02,0.09 0.01,0.03 0.01,0.07 0.05,0.07 0.03,0 0.06,-0.05 0.08,-0.07 0.01,-0.01 0.01,-0.01 0.01,-0.01l0.02 -0.03c0.08,-0.09 0.17,-0.24 0.22,-0.34l0.03 -0.07c0.03,-0.07 0.05,-0.14 0.08,-0.22l0.02 -0.08c0.01,-0.03 0.01,-0.05 0.02,-0.08 0.01,-0.04 0.02,-0.14 0.02,-0.18 0,-0.12 0,-0.16 -0.01,-0.28l-0.03 -0.16c-0.02,-0.06 -0.03,-0.12 -0.05,-0.18l-0.04 -0.1c-0.01,-0.01 -0.01,-0.02 -0.01,-0.03 -0.01,-0.02 -0.02,-0.04 -0.03,-0.06l-0.11 -0.18c-0.01,-0.01 -0.01,-0.02 -0.02,-0.03 -0.01,-0.01 -0.01,-0.02 -0.02,-0.03 -0.01,-0.01 -0.01,-0.02 -0.02,-0.03l-0.16 -0.17c-0.03,-0.03 -0.07,-0.06 -0.1,-0.09l-0.06 -0.04c-0.07,-0.05 -0.16,-0.11 -0.24,-0.14 -0.07,-0.03 -0.14,-0.06 -0.21,-0.08 -0.01,-0 -0.01,-0 -0.02,-0.01 -0.01,-0 -0.01,-0 -0.02,-0l-0.12 -0.03c-0.06,-0.01 -0.11,-0.02 -0.17,-0.03 -0.03,-0 -0.06,-0.01 -0.09,-0.01l-0.14 0c-0.07,0 -0.13,0.01 -0.19,0.02 -0.01,0 -0.01,0 -0.02,0 -0.01,0 -0.01,0 -0.02,0l-0.17 0.04c-0.01,0 -0.01,0 -0.02,0.01 -0.02,0.01 -0.05,0.02 -0.07,0.02l-0.26 0.12 -0.06 0.04c-0.02,0.01 -0.04,0.03 -0.06,0.04 -0.04,0.03 -0.1,0.07 -0.13,0.11 -0,0 -0.01,0.01 -0.01,0.01 -0.02,0.02 -0.04,0.04 -0.05,0.05l-0.05 0.05c-0.05,0.05 -0.11,0.13 -0.15,0.19 -0.06,0.08 -0.11,0.18 -0.15,0.28 -0.01,0.03 -0.03,0.07 -0.04,0.11 -0.01,0.04 -0.03,0.07 -0.03,0.11 -0.01,0.07 -0.03,0.13 -0.04,0.2 -0,0.04 -0.01,0.09 -0.01,0.13z"/>
    <path class="fil0" d="M1.06 2.24c0,0.03 0,0.05 0.03,0.07 0.04,0.03 0.08,0 0.12,-0.02l0.11 -0.05c0.01,-0 0.02,-0.01 0.03,-0.01l0.13 -0.07c0.07,-0.04 0.14,-0.07 0.21,-0.11 0.04,-0.02 0.07,-0.03 0.11,-0.05 0.03,-0.01 0.09,-0.05 0.12,-0.05 0.03,0 0.02,0.04 0.01,0.06 -0.01,0.01 -0.05,0.04 -0.06,0.05l-0.52 0.4c-0.01,0.01 -0.02,0.02 -0.03,0.02l-0.34 0.26c-0.04,0.03 -0.08,0.06 -0.12,0.09 -0.07,0.05 -0.13,0.1 -0.2,0.15l-0.41 0.31c-0.02,0.02 -0.04,0.03 -0.06,0.05 -0.03,0.03 -0.13,0.09 -0.15,0.12 -0.02,0.02 -0.04,0.07 0,0.07 0.05,0 0.05,-0.01 0.1,-0.02l0.33 -0.12c0.04,-0.02 0.09,-0.03 0.13,-0.05l0.4 -0.14c0.11,-0.04 0.16,-0.05 0.27,-0.02 0.01,0 0.04,0.01 0.05,0.01 0.05,0.01 0.12,0.02 0.17,0.02 0.04,-0 0.08,0.01 0.12,0.01 0.08,0 0.21,-0.01 0.28,-0.02l0.06 -0.01c0.05,-0.01 0.09,-0.02 0.14,-0.04 0.07,-0.02 0.14,-0.04 0.2,-0.07 0.05,-0.02 0.09,-0.04 0.13,-0.07 0.03,-0.02 0.03,-0.02 0.03,-0.06 0,-0.02 -0.09,-0.48 -0.1,-0.56 -0.01,-0.05 -0.02,-0.09 -0.03,-0.14l-0.06 -0.35c-0,-0 -0,-0.01 -0,-0.01l-0.06 -0.33c-0,-0.02 -0.01,-0.04 -0.01,-0.07 -0,-0.02 -0.01,-0.05 -0.01,-0.07l-0.06 -0.35c-0,-0.01 -0,-0.02 -0.01,-0.03l-0.05 -0.28c-0,-0.03 -0.04,-0.03 -0.05,-0.01 -0.01,0.01 -0.01,0.01 -0.01,0.02l-0.06 0.1c-0.01,0.01 -0.01,0.01 -0.01,0.02l-0.19 0.31c-0.01,0.01 -0.01,0.01 -0.02,0.02l-0.05 0.07c-0.01,0.01 -0.02,0.03 -0.03,0.05l-0.06 0.1c-0.05,0.08 -0.11,0.18 -0.16,0.26 -0.01,0.01 -0.01,0.01 -0.01,0.02 -0.04,0.06 -0.08,0.13 -0.12,0.19 -0.01,0.02 -0.02,0.03 -0.03,0.05l-0.09 0.14c-0.01,0.02 -0.02,0.03 -0.03,0.05 -0.02,0.03 -0.05,0.07 -0.05,0.11z"/>
   </g>
   <g>
    <path class="fil0" d="M12.4 2.52l0.43 0 0.02 -0.42c0,-0.1 0.02,-0.27 0.02,-0.36 -0,-0.03 0,-0.03 0.01,-0.05 0,0 0,0 0,0 0,0 0,0 0,0 0.03,0.06 0.14,0.39 0.18,0.49l0.06 0.17 0.31 0c0.02,-0.08 0.24,-0.64 0.25,-0.67 0.02,0.01 0.01,0.04 0.01,0.1 0,0.02 -0,0.04 0,0.05l0.04 0.69 0.42 0c-0,-0.02 -0,-0.02 -0,-0.04l-0.02 -0.24c-0,-0.03 -0.01,-0.07 -0.01,-0.1l-0.04 -0.57c-0,-0.02 -0,-0.07 -0.01,-0.1 -0,-0.03 -0.01,-0.07 -0.01,-0.1 -0,-0.08 -0.03,-0.3 -0.03,-0.38l-0.45 0 -0.28 0.72c-0.01,0.02 -0.01,0.03 -0.02,0.05 -0.01,0.03 -0.01,0.04 -0.02,0.05l-0.3 -0.81c-0.01,-0.01 -0,-0.02 -0.02,-0.02l-0.44 0c-0,0.02 -0.01,0.07 -0.01,0.09l-0.08 1.05c-0.01,0.05 -0.02,0.36 -0.03,0.38z"/>
    <path class="fil0" d="M17.45 2.52l0.37 0 0.27 -0.47c0.02,-0.03 0.03,-0.06 0.05,-0.09l0.1 -0.18c0,-0 0.01,-0.01 0.01,-0.01l0 0.76 0.42 0 0 -1.52 -0.38 0c-0.01,0 -0.02,0.01 -0.03,0.04l-0.18 0.33c-0.02,0.03 -0.03,0.06 -0.05,0.1 -0.01,0.02 -0.02,0.03 -0.03,0.05 -0.01,0.02 -0.02,0.03 -0.03,0.05 -0.01,0.02 -0.09,0.17 -0.11,0.19l0 -0.75 -0.41 0 0 1.52z"/>
    <path class="fil0" d="M9.82 2.52l0.37 0c0,-0.01 0.02,-0.04 0.03,-0.05 0.09,-0.16 0.2,-0.36 0.3,-0.52l0.1 -0.18c0,-0 0.01,-0.01 0.01,-0.01l0 0.76 0.42 0 0 -1.52 -0.38 0c-0.01,0 -0.02,0.01 -0.03,0.04l-0.37 0.67c-0.01,0.02 -0.01,0.03 -0.03,0.04l0 -0.75 -0.41 0 0 1.52z"/>
    <path class="fil0" d="M7.07 2.52l0.37 0c0,-0.01 0.02,-0.04 0.03,-0.05 0.01,-0.02 0.02,-0.03 0.03,-0.05l0.11 -0.19c0.08,-0.15 0.18,-0.3 0.26,-0.45l0.02 -0.02 0 0.76 0.42 0 0 -1.52 -0.38 0c-0.01,0 -0.02,0.01 -0.03,0.04l-0.34 0.62c-0.01,0.02 -0.04,0.08 -0.06,0.09l0 -0.75 -0.41 0 0 1.52z"/>
    <path class="fil0" d="M14.78 1.96l0 -0.4c0,-0.3 0.35,-0.28 0.45,-0.19 0.05,0.04 0.07,0.11 0.07,0.17l0 0.43c0,0.15 -0.09,0.24 -0.24,0.24 -0.18,0 -0.28,-0.06 -0.28,-0.25zm-0.42 -0.45l0 0.51c0,0.18 0.1,0.38 0.27,0.45 0.03,0.01 0.06,0.03 0.11,0.04 0.2,0.05 0.45,0.05 0.64,-0.01 0.18,-0.06 0.28,-0.17 0.32,-0.36 0.01,-0.03 0.02,-0.19 0.02,-0.24l0 -0.26c0,-0.04 -0.01,-0.05 -0.01,-0.08 0,-0.17 -0.03,-0.27 -0.13,-0.4 -0.18,-0.21 -0.81,-0.22 -1.03,-0.05 -0.12,0.09 -0.19,0.25 -0.19,0.41z"/>
    <path class="fil0" d="M19.33 1.51c0,-0.04 0.01,-0.11 0.02,-0.13 0.02,-0.03 0.06,-0.05 0.11,-0.05l0.2 0 0 0.34 -0.22 0c-0.04,0 -0.08,-0.02 -0.09,-0.04 -0.02,-0.03 -0.02,-0.07 -0.02,-0.11zm-0.42 -0.04c0,0.23 0.03,0.4 0.25,0.47 0.02,0.01 0.06,0.01 0.08,0.02 -0.03,0.05 -0.38,0.53 -0.39,0.55l0.48 0c0,-0.02 0.1,-0.17 0.11,-0.2 0.01,-0.02 0.03,-0.05 0.04,-0.07l0.13 -0.23c0.01,-0.01 0.02,-0.02 0.02,-0.04l0.03 0 0 0.53 0.41 0 0 -1.52 -0.64 0c-0.07,0 -0.16,0.01 -0.22,0.02 -0.22,0.05 -0.3,0.2 -0.3,0.45z"/>
    <path class="fil0" d="M15.83 2.24c0.01,0.01 0.02,0.02 0.03,0.04l0.25 0.27c0.05,-0.04 0.15,-0.16 0.18,-0.22 0.14,-0.22 0.14,-0.38 0.17,-0.63l0.05 -0.36 0.23 0 0 1.19 0.42 0 0 -1.52 -1.02 0 -0.05 0.34c-0.02,0.11 -0.03,0.23 -0.05,0.34 -0.02,0.12 -0.02,0.23 -0.06,0.33 -0.03,0.07 -0.1,0.19 -0.16,0.23z"/>
    <path class="fil0" d="M4.93 1.41c0.01,0.03 0.02,0.06 0.03,0.1 0.01,0.05 0.08,0.27 0.08,0.3l-0.22 0 0.11 -0.39zm-0.76 1.11l0.43 0c0.01,-0.02 0.02,-0.07 0.03,-0.1 0.01,-0.03 0.02,-0.06 0.03,-0.1 0.01,-0.04 0.06,-0.17 0.06,-0.2l0.42 0 0.12 0.39 0.43 0c-0,-0.02 -0.01,-0.03 -0.02,-0.05l-0.05 -0.14c-0.09,-0.27 -0.21,-0.58 -0.31,-0.85l-0.17 -0.48 -0.43 0c-0,0.03 -0.24,0.66 -0.27,0.76 -0.05,0.15 -0.12,0.33 -0.17,0.47 -0.02,0.05 -0.1,0.26 -0.1,0.29z"/>
    <path class="fil0" d="M8.55 1.04l0 0.3 0.19 -0.03c0.09,-0.01 0.26,-0.02 0.34,0.01 0.1,0.05 0.07,0.29 -0.06,0.29l-0.32 0 0 0.3 0.28 0c0.05,0 0.11,0.02 0.14,0.04 0.05,0.04 0.08,0.19 0,0.25 -0.12,0.09 -0.57,-0.02 -0.62,-0.02l0 0.31 0.1 0.02c0.03,0.01 0.07,0.01 0.1,0.02 0.21,0.03 0.57,0.05 0.74,-0.08 0.04,-0.03 0.07,-0.09 0.09,-0.15 0.06,-0.14 0.06,-0.4 -0.09,-0.52l-0.07 -0.04c-0.02,-0.01 -0.01,-0 -0.02,-0.01 0.02,-0.01 0.06,-0.03 0.07,-0.04 0.1,-0.09 0.12,-0.15 0.12,-0.29 0,-0.14 -0.06,-0.28 -0.15,-0.34 -0.2,-0.12 -0.62,-0.08 -0.85,-0.02z"/>
    <path class="fil0" d="M5.8 1.04l0 0.3 0.19 -0.03c0.09,-0.01 0.26,-0.02 0.34,0.01 0.1,0.05 0.07,0.29 -0.06,0.29l-0.32 0 0 0.3 0.28 0c0.11,0 0.19,0.05 0.19,0.17 0,0.16 -0.12,0.15 -0.25,0.15 -0.1,0 -0.22,-0.01 -0.32,-0.03l-0.1 -0.02 0 0.31c0.03,0 0.24,0.06 0.43,0.06 0.17,0 0.37,0.01 0.51,-0.1 0.04,-0.03 0.07,-0.09 0.09,-0.15 0.06,-0.14 0.06,-0.4 -0.09,-0.52l-0.07 -0.04c-0.02,-0.01 -0.01,-0 -0.02,-0.01 0.05,-0.01 0.11,-0.07 0.13,-0.1 0.11,-0.14 0.06,-0.47 -0.09,-0.56 -0.16,-0.09 -0.45,-0.08 -0.65,-0.06 -0.07,0.01 -0.14,0.02 -0.2,0.04z"/>
    <polygon class="fil0" points="11.3,2.1 12.19,2.1 12.19,1.82 11.3,1.82 "/>
   </g>
  </g>
 </g>
</svg>
