<?xml version="1.0" standalone="no"?>
<!DOCTYPE svg PUBLIC "-//W3C//DTD SVG 20010904//EN"
 "http://www.w3.org/TR/2001/REC-SVG-20010904/DTD/svg10.dtd">
<svg version="1.0" xmlns="http://www.w3.org/2000/svg"
 width="192.000000pt" height="192.000000pt" viewBox="0 0 192.000000 192.000000"
 preserveAspectRatio="xMidYMid meet">

<g transform="translate(0.000000,192.000000) scale(0.100000,-0.100000)"
fill="#000000" stroke="none">
<path d="M815 1901 c-122 -23 -193 -48 -295 -102 -157 -84 -290 -222 -371
-384 -59 -120 -81 -217 -82 -360 -1 -139 22 -244 78 -361 41 -85 119 -194 140
-194 18 0 15 -4 485 660 363 513 436 610 459 610 5 0 18 -8 30 -17 17 -15 46
-128 167 -658 80 -352 148 -643 150 -647 16 -25 76 32 151 142 150 222 182
519 82 769 -153 381 -588 618 -994 542z"/>
<path d="M921 1126 c-354 -531 -358 -516 90 -303 74 35 121 52 129 47 11 -7
11 -11 0 -25 -7 -9 -251 -189 -542 -401 -458 -335 -558 -414 -520 -414 4 0
135 43 292 95 294 98 322 104 421 85 84 -17 273 -14 364 5 91 19 224 68 256
94 l22 18 -107 549 c-132 671 -126 644 -135 644 -4 0 -126 -177 -270 -394z"/>
</g>
</svg>
