<?xml version="1.0" encoding="UTF-8"?>
<!DOCTYPE svg PUBLIC "-//W3C//DTD SVG 1.1//EN" "http://www.w3.org/Graphics/SVG/1.1/DTD/svg11.dtd">
<!-- Creator: CorelDRAW -->
<svg xmlns="http://www.w3.org/2000/svg" xml:space="preserve" width="0.183335in" height="0.183335in" version="1.1" style="shape-rendering:geometricPrecision; text-rendering:geometricPrecision; image-rendering:optimizeQuality; fill-rule:evenodd; clip-rule:evenodd"
viewBox="0 0 3.7 3.7"
 xmlns:xlink="http://www.w3.org/1999/xlink"
 xmlns:xodm="http://www.corel.com/coreldraw/odm/2003">
 <defs>
  <style type="text/css">
   <![CDATA[
    .fil0 {fill:none}
    .fil1 {fill:#00718f;fill-rule:nonzero}
   ]]>
  </style>
 </defs>
 <g id="Слой_x0020_1">
  <metadata id="CorelCorpID_0Corel-Layer"/>
  <g id="_1811192417824">
   <rect class="fil0" x="-0" y="-0" width="3.7" height="3.7"/>
   <path class="fil1" d="M1.85 1.69c0.03,0 0.06,0.03 0.06,0.06 0,0.03 0.02,0.05 0.05,0.05 0.03,0 0.05,-0.02 0.05,-0.05 0,-0.07 -0.04,-0.12 -0.1,-0.14l0 -0.03c0,-0.03 -0.02,-0.05 -0.05,-0.05 -0.03,0 -0.05,0.02 -0.05,0.05l0 0.03c-0.06,0.02 -0.1,0.08 -0.1,0.14 0,0.08 0.07,0.15 0.15,0.15 0.03,0 0.06,0.03 0.06,0.06 0,0.03 -0.03,0.06 -0.06,0.06 -0.03,0 -0.06,-0.03 -0.06,-0.06 0,-0.03 -0.02,-0.05 -0.05,-0.05 -0.03,0 -0.05,0.02 -0.05,0.05 0,0.07 0.04,0.12 0.1,0.14l0 0.03c0,0.03 0.02,0.05 0.05,0.05 0.03,0 0.05,-0.02 0.05,-0.05l0 -0.03c0.06,-0.02 0.1,-0.08 0.1,-0.14 0,-0.08 -0.07,-0.15 -0.15,-0.15 -0.03,0 -0.06,-0.03 -0.06,-0.06 0,-0.03 0.03,-0.06 0.06,-0.06l0 0zm-1.4 -0.97l1.8 0c0.11,0 0.62,-0.01 0.93,0 0.17,0 0.21,-0 0.34,0.1 0.11,0.08 0.18,0.21 0.18,0.35l0 1.36c0,0.25 -0.2,0.45 -0.45,0.45l-2.79 0c-0.25,0 -0.45,-0.2 -0.45,-0.45l0 -1.36c0,-0.25 0.2,-0.45 0.45,-0.45zm2.86 0.1c-0,0 -0,0 -0,0 -0.06,-0.01 -0,-0 -1,-0.01l-1.86 0c-0.2,0 -0.36,0.16 -0.36,0.36l0 1.36c0,0.2 0.16,0.36 0.36,0.36l2.79 0c0.2,0 0.36,-0.16 0.36,-0.36l0 -1.36c0,-0.18 -0.13,-0.33 -0.3,-0.36l0 0zm-0.02 0.63l0 0.82c0,0.03 -0.02,0.05 -0.05,0.05 -0.15,0 -0.28,0.12 -0.28,0.28 0,0.03 -0.02,0.05 -0.05,0.05l-2.15 0c-0.03,0 -0.05,-0.02 -0.05,-0.05 0,-0.15 -0.12,-0.28 -0.28,-0.28 -0.03,0 -0.05,-0.02 -0.05,-0.05l0 -0.82c0,-0.03 0.02,-0.05 0.05,-0.05 0.15,0 0.28,-0.12 0.28,-0.28 0,-0.03 0.02,-0.05 0.05,-0.05l2.15 0c0.03,0 0.05,0.02 0.05,0.05 0,0.15 0.12,0.28 0.28,0.28 0.03,0 0.05,0.02 0.05,0.05l0 0zm-0.09 0.04c-0.17,-0.02 -0.3,-0.15 -0.32,-0.32l-2.06 0c-0.02,0.17 -0.15,0.3 -0.32,0.32l0 0.74c0.17,0.02 0.3,0.15 0.32,0.32l2.06 0c0.02,-0.17 0.15,-0.3 0.32,-0.32l0 -0.74zm-0.76 0.37c0,0.33 -0.27,0.59 -0.59,0.59 -0.33,0 -0.59,-0.27 -0.59,-0.59 0,-0.33 0.27,-0.59 0.59,-0.59 0.33,0 0.59,0.27 0.59,0.59zm-0.09 0c0,-0.28 -0.22,-0.5 -0.5,-0.5 -0.28,0 -0.5,0.22 -0.5,0.5 0,0.28 0.22,0.5 0.5,0.5 0.28,0 0.5,-0.22 0.5,-0.5z"/>
  </g>
 </g>
</svg>
