<?xml version="1.0" encoding="UTF-8"?>
<!DOCTYPE svg PUBLIC "-//W3C//DTD SVG 1.1//EN" "http://www.w3.org/Graphics/SVG/1.1/DTD/svg11.dtd">
<!-- Creator: CorelDRAW -->
<svg xmlns="http://www.w3.org/2000/svg" xml:space="preserve" width="0.183335in" height="0.183335in" version="1.1" style="shape-rendering:geometricPrecision; text-rendering:geometricPrecision; image-rendering:optimizeQuality; fill-rule:evenodd; clip-rule:evenodd"
viewBox="0 0 2.5 2.5"
 xmlns:xlink="http://www.w3.org/1999/xlink"
 xmlns:xodm="http://www.corel.com/coreldraw/odm/2003">
 <defs>
  <style type="text/css">
   <![CDATA[
    .fil0 {fill:none}
    .fil1 {fill:#244457;fill-rule:nonzero}
   ]]>
  </style>
 </defs>
 <g id="Слой_x0020_1">
  <metadata id="CorelCorpID_0Corel-Layer"/>
  <g id="_1847689529792">
   <rect class="fil0" x="-0" y="-0" width="2.5" height="2.5"/>
   <path class="fil1" d="M1.25 1.14c0.02,0 0.04,0.02 0.04,0.04 0,0.02 0.01,0.03 0.03,0.03 0.02,0 0.03,-0.01 0.03,-0.03 0,-0.05 -0.03,-0.08 -0.07,-0.1l0 -0.02c0,-0.02 -0.01,-0.03 -0.03,-0.03 -0.02,0 -0.03,0.01 -0.03,0.03l0 0.02c-0.04,0.01 -0.07,0.05 -0.07,0.1 0,0.06 0.05,0.1 0.1,0.1 0.02,0 0.04,0.02 0.04,0.04 0,0.02 -0.02,0.04 -0.04,0.04 -0.02,0 -0.04,-0.02 -0.04,-0.04 0,-0.02 -0.01,-0.03 -0.03,-0.03 -0.02,0 -0.03,0.01 -0.03,0.03 0,0.05 0.03,0.08 0.07,0.1l0 0.02c0,0.02 0.01,0.03 0.03,0.03 0.02,0 0.03,-0.01 0.03,-0.03l0 -0.02c0.04,-0.01 0.07,-0.05 0.07,-0.1 0,-0.06 -0.05,-0.1 -0.1,-0.1 -0.02,0 -0.04,-0.02 -0.04,-0.04 0,-0.02 0.02,-0.04 0.04,-0.04l0 0zm-0.94 -0.66l1.21 0c0.07,0 0.42,-0 0.63,0 0.12,0 0.14,-0 0.23,0.07 0.07,0.06 0.12,0.14 0.12,0.24l0 0.92c0,0.17 -0.14,0.31 -0.31,0.31l-1.89 0c-0.17,0 -0.31,-0.14 -0.31,-0.31l0 -0.92c0,-0.17 0.14,-0.31 0.31,-0.31zm1.93 0.07c-0,0 -0,0 -0,0 -0.04,-0.01 -0,-0 -0.67,-0l-1.26 0c-0.14,0 -0.25,0.11 -0.25,0.25l0 0.92c0,0.14 0.11,0.25 0.25,0.25l1.89 0c0.14,0 0.25,-0.11 0.25,-0.25l0 -0.92c0,-0.12 -0.08,-0.22 -0.2,-0.24l0 0zm-0.01 0.42l0 0.56c0,0.02 -0.01,0.03 -0.03,0.03 -0.1,0 -0.19,0.08 -0.19,0.19 0,0.02 -0.01,0.03 -0.03,0.03l-1.45 0c-0.02,0 -0.03,-0.01 -0.03,-0.03 0,-0.1 -0.08,-0.19 -0.19,-0.19 -0.02,0 -0.03,-0.01 -0.03,-0.03l0 -0.56c0,-0.02 0.01,-0.03 0.03,-0.03 0.1,0 0.19,-0.08 0.19,-0.19 0,-0.02 0.01,-0.03 0.03,-0.03l1.45 0c0.02,0 0.03,0.01 0.03,0.03 0,0.1 0.08,0.19 0.19,0.19 0.02,0 0.03,0.01 0.03,0.03l0 0zm-0.06 0.03c-0.11,-0.01 -0.2,-0.1 -0.22,-0.22l-1.39 0c-0.01,0.11 -0.1,0.2 -0.22,0.22l0 0.5c0.11,0.01 0.2,0.1 0.22,0.22l1.39 0c0.01,-0.11 0.1,-0.2 0.22,-0.22l0 -0.5zm-0.51 0.25c0,0.22 -0.18,0.4 -0.4,0.4 -0.22,0 -0.4,-0.18 -0.4,-0.4 0,-0.22 0.18,-0.4 0.4,-0.4 0.22,0 0.4,0.18 0.4,0.4zm-0.06 0c0,-0.19 -0.15,-0.34 -0.34,-0.34 -0.19,0 -0.34,0.15 -0.34,0.34 0,0.19 0.15,0.34 0.34,0.34 0.19,0 0.34,-0.15 0.34,-0.34z"/>
  </g>
 </g>
</svg>
