<?xml version="1.0" encoding="UTF-8"?>
<!DOCTYPE svg PUBLIC "-//W3C//DTD SVG 1.1//EN" "http://www.w3.org/Graphics/SVG/1.1/DTD/svg11.dtd">
<!-- Creator: CorelDRAW -->
<svg xmlns="http://www.w3.org/2000/svg" xml:space="preserve" width="0.183335in" height="0.183335in" version="1.1" style="shape-rendering:geometricPrecision; text-rendering:geometricPrecision; image-rendering:optimizeQuality; fill-rule:evenodd; clip-rule:evenodd"
viewBox="0 0 3.7 3.7"
 xmlns:xlink="http://www.w3.org/1999/xlink"
 xmlns:xodm="http://www.corel.com/coreldraw/odm/2003">
 <defs>
  <style type="text/css">
   <![CDATA[
    .fil0 {fill:none}
    .fil1 {fill:#00718f;fill-rule:nonzero}
   ]]>
  </style>
 </defs>
 <g id="Слой_x0020_1">
  <metadata id="CorelCorpID_0Corel-Layer"/>
  <rect class="fil0" x="-0" y="-0" width="3.7" height="3.7"/>
  <g id="_1810605838896">
   <g id="XMLID_521_">
    <path id="XMLID_1272_" class="fil1" d="M3.17 3.05c-0.08,-0.11 -0.13,-0.23 -0.15,-0.36l-0.12 -0.71c-0.06,-0.35 -0.32,-0.62 -0.65,-0.7 0.04,-0.03 0.06,-0.08 0.06,-0.13 0,-0.09 -0.06,-0.16 -0.15,-0.17l0.25 -0.58c0,-0.01 0,-0.02 -0,-0.03 -0.01,-0.01 -0.02,-0.01 -0.03,-0.01l-0.37 0c-0.01,0 -0.02,0.01 -0.03,0.01l-0.1 0.15 -0.57 -0.16c-0.01,-0 -0.03,0 -0.03,0.01 -0.01,0.01 -0.01,0.02 -0.01,0.03l0.25 0.58c-0.08,0.01 -0.15,0.08 -0.15,0.17 0,0.05 0.02,0.1 0.06,0.13 -0.33,0.08 -0.59,0.35 -0.65,0.7l-0.12 0.71c-0.02,0.13 -0.07,0.25 -0.15,0.36 -0.02,0.03 -0.04,0.07 -0.04,0.11 0,0.1 0.08,0.19 0.19,0.19l2.33 -0c0.1,0 0.19,-0.09 0.19,-0.19 0,-0.04 -0.01,-0.08 -0.04,-0.11l0 0zm-1.8 -2.61l0.53 0.15c0.01,0 0.03,-0 0.04,-0.01l0.1 -0.15 0.3 0 -0.24 0.55 -0.49 0 -0.23 -0.54zm0.19 0.6l0.03 0c0,0 0,0 0,0l0.53 0c0,0 0,0 0,0 0,0 0,-0 0,-0l0.03 0c0.06,0 0.1,0.05 0.1,0.1 0,0.06 -0.05,0.1 -0.1,0.1l-0.59 0c-0.06,0 -0.1,-0.05 -0.1,-0.1 0,-0.06 0.05,-0.1 0.1,-0.1zm1.46 2.24l-2.33 0c-0.08,0 -0.12,-0.06 -0.12,-0.12 0,-0.03 0.01,-0.05 0.02,-0.07 0.08,-0.11 0.14,-0.25 0.16,-0.39l0.12 -0.71c0.06,-0.39 0.4,-0.67 0.79,-0.67l0.39 0c0.39,0 0.73,0.28 0.79,0.67l0.12 0.71c0.02,0.14 0.08,0.27 0.16,0.39 0.02,0.02 0.02,0.05 0.02,0.07 0,0.06 -0.05,0.12 -0.12,0.12z"/>
    <path id="XMLID_1317_" class="fil1" d="M1.85 1.68c-0.34,0 -0.62,0.28 -0.62,0.62 0,0.34 0.28,0.62 0.62,0.62 0.34,0 0.62,-0.28 0.62,-0.62 0,-0.34 -0.28,-0.62 -0.62,-0.62zm0 1.18c-0.31,0 -0.56,-0.25 -0.56,-0.56 0,-0.31 0.25,-0.56 0.56,-0.56 0.31,0 0.56,0.25 0.56,0.56 0,0.31 -0.25,0.56 -0.56,0.56z"/>
    <path id="XMLID_1318_" class="fil1" d="M1.85 2.26c-0.06,0 -0.1,-0.05 -0.1,-0.1 0,-0.06 0.05,-0.1 0.1,-0.1 0,0 0,0 0,0 0,0 0,0 0,0 0.04,0 0.07,0.02 0.09,0.05 0.01,0.02 0.03,0.02 0.04,0.01 0.02,-0.01 0.02,-0.03 0.01,-0.04 -0.02,-0.04 -0.06,-0.07 -0.11,-0.08l0 -0.07c0,-0.02 -0.01,-0.03 -0.03,-0.03 -0.02,0 -0.03,0.01 -0.03,0.03l0 0.07c-0.08,0.02 -0.13,0.08 -0.13,0.16 0,0.09 0.07,0.17 0.17,0.17 0.06,0 0.1,0.05 0.1,0.1 0,0.06 -0.05,0.1 -0.1,0.1 -0,0 -0,-0 -0,-0 -0,0 -0,0 -0,0 -0.04,-0 -0.07,-0.02 -0.09,-0.05 -0.01,-0.02 -0.03,-0.02 -0.04,-0.01 -0.02,0.01 -0.02,0.03 -0.01,0.04 0.02,0.04 0.06,0.07 0.11,0.08l0 0.07c0,0.02 0.01,0.03 0.03,0.03 0.02,0 0.03,-0.01 0.03,-0.03l0 -0.07c0.08,-0.02 0.13,-0.08 0.13,-0.16 0,-0.09 -0.07,-0.17 -0.17,-0.17l0 0z"/>
   </g>
  </g>
 </g>
</svg>
