<?xml version="1.0" encoding="UTF-8"?>
<!DOCTYPE svg PUBLIC "-//W3C//DTD SVG 1.1//EN" "http://www.w3.org/Graphics/SVG/1.1/DTD/svg11.dtd">
<!-- Creator: CorelDRAW -->
<svg xmlns="http://www.w3.org/2000/svg" xml:space="preserve" width="0.183335in" height="0.183335in" version="1.1" style="shape-rendering:geometricPrecision; text-rendering:geometricPrecision; image-rendering:optimizeQuality; fill-rule:evenodd; clip-rule:evenodd"
viewBox="0 0 1.98 1.98"
 xmlns:xlink="http://www.w3.org/1999/xlink"
 xmlns:xodm="http://www.corel.com/coreldraw/odm/2003">
 <defs>
  <style type="text/css">
   <![CDATA[
    .fil0 {fill:none}
    .fil1 {fill:#00718f;fill-rule:nonzero}
   ]]>
  </style>
 </defs>
 <g id="Слой_x0020_1">
  <metadata id="CorelCorpID_0Corel-Layer"/>
  <g id="_1811953229920">
   <rect class="fil0" x="-0" y="-0" width="1.98" height="1.98"/>
   <g>
    <g id="_Group_2">
     <path class="fil1" d="M1.79 1.79l-1.59 0c-0.01,0 -0.01,-0.01 -0.01,-0.01l0 -0.1c0,-0.01 0.01,-0.01 0.01,-0.01 0,0 0,0 0,0l1.59 0c0.01,0 0.01,0.01 0.01,0.01l0 0.1c-0,0.01 -0.01,0.01 -0.01,0.01 0,0 0,0 0,0l0 0zm-1.58 -0.03l1.57 0 0 -0.07 -1.57 0 0 0.07z"/>
    </g>
    <g id="_Group_3">
     <path class="fil1" d="M1.21 1.69l-0.44 0c-0.01,0 -0.01,-0.01 -0.01,-0.01l0 -0.53c0,-0.04 0.03,-0.07 0.07,-0.07l0.33 0c0.04,0 0.07,0.03 0.07,0.07l0 0.53c0,0.01 -0.01,0.01 -0.01,0.01l0 0zm-0.43 -0.03l0.41 0 0 -0.52c-0,-0.02 -0.02,-0.04 -0.04,-0.04l-0.33 0c-0.02,0 -0.04,0.02 -0.04,0.04l0 0.52z"/>
    </g>
    <g id="_Group_4">
     <g id="_Group_5">
      <g id="_Group_6">
       <g id="_Group_7">
        <path class="fil1" d="M0.59 1.07c-0.01,-0 -0.01,-0.01 -0.01,-0.01 0,-0.01 0,-0.01 0.01,-0.01 0.03,-0 0.04,-0.03 0.04,-0.05 0,-0 0,-0 0,-0l0 -0.05 -0.26 0 0 0.05c0,0 0,0 0,0 0,0.03 0.02,0.05 0.04,0.05 0.01,0 0.01,0.01 0.01,0.01 0,0.01 -0.01,0.01 -0.01,0.01 -0,0 -0,-0 -0,-0 -0.04,-0.01 -0.06,-0.04 -0.06,-0.08 0,-0 0,-0 0,-0l0 -0.06c0,-0.01 0.01,-0.01 0.01,-0.01l0.29 0c0.01,0 0.01,0.01 0.01,0.01l0 0.06c0,0 0,0 0,0 0,0.04 -0.03,0.07 -0.07,0.08 -0,0 -0,0 -0,0l0 0z"/>
       </g>
       <g id="_Group_8">
        <path class="fil1" d="M0.41 1.6c-0.01,0 -0.01,-0.01 -0.01,-0.01 0,0 0,0 0,0l0 -0.53c0,-0.01 0.01,-0.01 0.01,-0.01 0.01,0 0.01,0.01 0.01,0.01l0 0.53c0,0.01 -0.01,0.01 -0.01,0.01l0 0z"/>
       </g>
       <g id="_Group_9">
        <path class="fil1" d="M0.59 1.6c-0.01,0 -0.01,-0.01 -0.01,-0.01l0 -0.53c0,-0.01 0.01,-0.01 0.01,-0.01 0.01,0 0.01,0.01 0.01,0.01l0 0.53c0,0 0,0 0,0 0,0.01 -0.01,0.01 -0.01,0.01l0 0z"/>
       </g>
       <g id="_Group_10">
        <path class="fil1" d="M0.65 1.69l-0.29 0c-0.01,0 -0.01,-0.01 -0.01,-0.01l0 -0.03c0,-0.04 0.03,-0.07 0.07,-0.08 0,-0 0,-0 0,-0 0.01,0 0.01,0.01 0.01,0.01 0,0.01 -0.01,0.01 -0.01,0.01 -0.03,0 -0.05,0.02 -0.05,0.05l0 0.02 0.27 0 0 -0.02c0,0 0,-0 0,-0 0,-0.03 -0.02,-0.05 -0.04,-0.05 -0.01,-0 -0.01,-0.01 -0.01,-0.01 0,-0.01 0.01,-0.01 0.01,-0.01 0,0 0,0 0,0 0.04,0 0.07,0.04 0.07,0.08 0,0 0,0 0,0l0 0.03c-0,0.01 -0.01,0.01 -0.01,0.01l0 0z"/>
       </g>
      </g>
     </g>
     <g id="_Group_12">
      <g id="_Group_13">
       <g id="_Group_14">
        <path class="fil1" d="M1.57 1.07c-0.01,-0 -0.01,-0.01 -0.01,-0.01 0,-0.01 0,-0.01 0.01,-0.01 0.03,-0 0.04,-0.03 0.04,-0.05 0,-0 0,-0 0,-0l0 -0.05 -0.26 0 0 0.05c0,0 0,0 0,0 0,0.03 0.02,0.05 0.04,0.05 0.01,0 0.01,0.01 0.01,0.01 0,0.01 -0.01,0.01 -0.01,0.01 -0,0 -0,-0 -0,-0 -0.04,-0.01 -0.06,-0.04 -0.06,-0.08 0,-0 0,-0 0,-0l0 -0.06c0,-0.01 0.01,-0.01 0.01,-0.01l0.29 0c0.01,0 0.01,0.01 0.01,0.01l0 0.06c0,0 0,0 0,0 0,0.04 -0.03,0.07 -0.07,0.08 -0,0 -0,0 -0,0l0 0z"/>
       </g>
       <g id="_Group_15">
        <path class="fil1" d="M1.39 1.6c-0.01,0 -0.01,-0.01 -0.01,-0.01l0 -0.53c0,-0 0,-0 0,-0 0,-0.01 0.01,-0.01 0.01,-0.01 0.01,0 0.01,0.01 0.01,0.01 0,0 0,0 0,0l0 0.53c0,0 0,0 0,0 0,0.01 -0.01,0.01 -0.01,0.01 0,0 0,0 0,0l0 0z"/>
       </g>
       <g id="_Group_16">
        <path class="fil1" d="M1.57 1.6c-0.01,0 -0.01,-0.01 -0.01,-0.01l0 -0.53c0,-0 0,-0 0,-0 0,-0.01 0.01,-0.01 0.01,-0.01 0.01,0 0.01,0.01 0.01,0.01 0,0 -0,0 -0,0l0 0.53c0,0 0,0 0,0 0,0.01 -0.01,0.01 -0.01,0.01l0 0z"/>
       </g>
       <g id="_Group_17">
        <path class="fil1" d="M1.63 1.69l-0.29 0c-0.01,0 -0.01,-0.01 -0.01,-0.01l0 -0.03c0,-0.04 0.03,-0.07 0.07,-0.08 0,-0 0,-0 0,-0 0.01,0 0.01,0.01 0.01,0.01 0,0.01 -0.01,0.01 -0.01,0.01 -0.03,0 -0.05,0.02 -0.05,0.05l0 0.02 0.27 0 0 -0.02c0,0 0,-0 0,-0 0,-0.03 -0.02,-0.05 -0.04,-0.05 -0.01,-0 -0.01,-0.01 -0.01,-0.01 0,-0.01 0.01,-0.01 0.01,-0.01 0,0 0,0 0,0 0.04,0 0.07,0.04 0.07,0.08 0,0 0,0 0,0l0 0.03c-0,0.01 -0.01,0.01 -0.01,0.01l0 0z"/>
       </g>
      </g>
     </g>
    </g>
    <g id="_Group_19">
     <g id="_Group_20">
      <path class="fil1" d="M1.74 0.94l-1.5 0c0,0 -0,0 -0,0 -0,0 -0.01,-0 -0.01,-0.01l-0.07 -0.13c-0,-0 -0,-0 -0,-0.01 0,-0.01 0.01,-0.01 0.01,-0.01l1.64 0c0.01,0 0.01,0.01 0.01,0.01 0,0 -0,0 -0,0.01l-0.07 0.13c-0,0 -0.01,0.01 -0.01,0.01 0,0 0,0 0,0l0 0zm-1.49 -0.03l1.48 0 0.06 -0.11 -1.6 0 0.06 0.11z"/>
     </g>
     <g id="_Group_21">
      <g id="_Group_22">
       <path class="fil1" d="M1.81 0.81c0,0 0,0 0,0 -0,0 -0.01,-0 -0.01,-0l-0.81 -0.58 -0.81 0.58c-0,0 -0,0 -0.01,0 -0.01,0 -0.01,-0.01 -0.01,-0.01 0,-0 0,-0.01 0.01,-0.01l0.82 -0.59c0,-0 0,-0 0.01,-0 0,0 0.01,0 0.01,0l0.82 0.59c0,0 0.01,0.01 0.01,0.01 0,0.01 -0.01,0.01 -0.01,0.01l0 0z"/>
      </g>
     </g>
    </g>
   </g>
  </g>
 </g>
</svg>
