<?xml version="1.0" encoding="UTF-8"?>
<!DOCTYPE svg PUBLIC "-//W3C//DTD SVG 1.1//EN" "http://www.w3.org/Graphics/SVG/1.1/DTD/svg11.dtd">
<!-- Creator: CorelDRAW -->
<svg xmlns="http://www.w3.org/2000/svg" xml:space="preserve" width="0.183335in" height="0.183335in" version="1.1" style="shape-rendering:geometricPrecision; text-rendering:geometricPrecision; image-rendering:optimizeQuality; fill-rule:evenodd; clip-rule:evenodd"
viewBox="0 0 1.98 1.98"
 xmlns:xlink="http://www.w3.org/1999/xlink"
 xmlns:xodm="http://www.corel.com/coreldraw/odm/2003">
 <defs>
  <style type="text/css">
   <![CDATA[
    .fil0 {fill:none}
    .fil1 {fill:#00718f}
   ]]>
  </style>
 </defs>
 <g id="Слой_x0020_1">
  <metadata id="CorelCorpID_0Corel-Layer"/>
  <g id="_1811163562400">
   <rect class="fil0" x="-0" y="-0" width="1.98" height="1.98"/>
   <g id="Layer_x0020_1">
    <g id="_351425560">
     <path id="_351409600" class="fil1" d="M1.56 1.83l-1.13 0c-0.11,0 -0.2,-0.09 -0.2,-0.2l0 -1.06c0,-0.01 0.01,-0.02 0.02,-0.02 0.01,0 0.02,0.01 0.02,0.02l0 1.06c0,0.09 0.07,0.16 0.16,0.16l1.13 0c0.09,0 0.16,-0.07 0.16,-0.16l0 -1.29c0,-0.09 -0.07,-0.16 -0.16,-0.16l-0.9 0c-0.01,0 -0.02,-0.01 -0.02,-0.02 0,-0.01 0.01,-0.02 0.02,-0.02l0.9 0c0.11,0 0.2,0.09 0.2,0.2l0 1.29c0,0.11 -0.09,0.2 -0.2,0.2l0 0z"/>
     <path id="_351409912" class="fil1" d="M0.29 0.56l0.35 0 0 -0.35c-0,0 -0.35,0.35 -0.35,0.35l0 0zm0.36 0.04l-0.41 0c-0.01,0 -0.01,-0 -0.02,-0.01 -0,-0.01 -0,-0.01 0,-0.02l0.41 -0.41c0.01,-0.01 0.01,-0.01 0.02,-0 0.01,0 0.01,0.01 0.01,0.02l0 0.41c-0,0.01 -0.01,0.02 -0.02,0.02l0 0z"/>
     <path id="_351409480" class="fil1" d="M1.48 1.62l-0.98 0c-0.01,0 -0.02,-0.01 -0.02,-0.02l0 -0.81c0,-0.01 0.01,-0.02 0.02,-0.02 0.01,0 0.02,0.01 0.02,0.02l0 0.79 0.96 0c0.01,0 0.02,0.01 0.02,0.02 0,0.01 -0.01,0.02 -0.02,0.02z"/>
     <path id="_351409984" class="fil1" d="M0.62 1.41c-0,0 -0.01,-0 -0.01,-0.01 -0.01,-0.01 -0.01,-0.02 0,-0.03l0.27 -0.27c0,-0 0.01,-0.01 0.01,-0.01 0.01,0 0.01,0 0.01,0.01l0.15 0.15 0.33 -0.33c0.01,-0.01 0.02,-0.01 0.03,0 0.01,0.01 0.01,0.02 0,0.03l-0.34 0.34c-0,0 -0.01,0.01 -0.01,0.01 -0.01,0 -0.01,-0 -0.01,-0.01l-0.15 -0.15 -0.25 0.25c-0,0 -0.01,0.01 -0.01,0.01l-0 0z"/>
     <path id="_351409456" class="fil1" d="M1.4 1.17c-0.01,0 -0.02,-0.01 -0.02,-0.02l0 -0.18 -0.18 0c-0.01,0 -0.02,-0.01 -0.02,-0.02 0,-0.01 0.01,-0.02 0.02,-0.02l0.2 0c0.01,0 0.02,0.01 0.02,0.02l0 0.2c-0,0.01 -0.01,0.02 -0.02,0.02l0 0z"/>
    </g>
   </g>
  </g>
 </g>
</svg>
