<?xml version="1.0" encoding="UTF-8"?>
<!DOCTYPE svg PUBLIC "-//W3C//DTD SVG 1.1//EN" "http://www.w3.org/Graphics/SVG/1.1/DTD/svg11.dtd">
<!-- Creator: CorelDRAW -->
<svg xmlns="http://www.w3.org/2000/svg" xml:space="preserve" width="0.183335in" height="0.183335in" version="1.1" style="shape-rendering:geometricPrecision; text-rendering:geometricPrecision; image-rendering:optimizeQuality; fill-rule:evenodd; clip-rule:evenodd"
viewBox="0 0 3.7 3.7"
 xmlns:xlink="http://www.w3.org/1999/xlink"
 xmlns:xodm="http://www.corel.com/coreldraw/odm/2003">
 <defs>
  <style type="text/css">
   <![CDATA[
    .str0 {stroke:#244457;stroke-width:0.08;stroke-miterlimit:22.9256}
    .str1 {stroke:#244457;stroke-width:0.06;stroke-miterlimit:22.9256}
    .fil0 {fill:none}
    .fil1 {fill:#00718f;fill-rule:nonzero}
   ]]>
  </style>
 </defs>
 <g id="Слой_x0020_1">
  <metadata id="CorelCorpID_0Corel-Layer"/>
  <g id="_1811326550656">
   <rect class="fil0" x="-0" y="-0" width="3.7" height="3.7"/>
   <g>
    <path class="fil1" d="M1.8 1.63c0.03,0 0.06,0.03 0.06,0.06 0,0.02 0.02,0.04 0.04,0.04 0.02,0 0.04,-0.02 0.04,-0.04 0,-0.06 -0.04,-0.12 -0.1,-0.14l0 -0.03c0,-0.02 -0.02,-0.04 -0.04,-0.04 -0.02,0 -0.04,0.02 -0.04,0.04l0 0.03c-0.06,0.02 -0.1,0.07 -0.1,0.14 0,0.08 0.06,0.14 0.14,0.14 0.03,0 0.06,0.03 0.06,0.06 0,0.03 -0.03,0.06 -0.06,0.06 -0.03,0 -0.06,-0.03 -0.06,-0.06 0,-0.02 -0.02,-0.04 -0.04,-0.04 -0.02,0 -0.04,0.02 -0.04,0.04 0,0.06 0.04,0.12 0.1,0.14l0 0.03c0,0.02 0.02,0.04 0.04,0.04 0.02,0 0.04,-0.02 0.04,-0.04l0 -0.03c0.06,-0.02 0.1,-0.07 0.1,-0.14 0,-0.08 -0.06,-0.14 -0.14,-0.14 -0.03,0 -0.06,-0.03 -0.06,-0.06 0,-0.03 0.03,-0.06 0.06,-0.06zm-1.34 -0.93l1.72 0c0.1,0 0.6,-0.01 0.89,0 0.16,0 0.2,-0 0.33,0.1 0.1,0.08 0.17,0.2 0.17,0.34l0 1.1c-0.03,-0.03 -0.05,-0.07 -0.09,-0.09l0 -1.01c0,-0.17 -0.12,-0.31 -0.29,-0.34 0,0 0,0 0,0 -0.06,-0.01 -0,-0 -0.96,-0.01l-1.78 0c-0.19,0 -0.35,0.16 -0.35,0.35l0 1.3c0,0.19 0.16,0.35 0.35,0.35l2.3 0c0.02,0.03 0.04,0.06 0.07,0.09l-2.37 0c-0.24,0 -0.44,-0.2 -0.44,-0.44l0 -1.3c0,-0.24 0.2,-0.44 0.44,-0.44zm2.72 0.69l0 0.64 -0 -0c-0.03,0 -0.06,0 -0.08,0.01l0 -0.6c-0.16,-0.02 -0.29,-0.15 -0.31,-0.31l-1.97 0c-0.02,0.16 -0.15,0.29 -0.31,0.31l0 0.7c0.16,0.02 0.29,0.15 0.31,0.31l1.88 0c-0,0.02 -0.01,0.05 -0.01,0.08l0 0.01 -1.91 0c-0.02,0 -0.04,-0.02 -0.04,-0.04 0,-0.15 -0.12,-0.26 -0.26,-0.26 -0.02,0 -0.04,-0.02 -0.04,-0.04l0 -0.79c0,-0.02 0.02,-0.04 0.04,-0.04 0.15,0 0.26,-0.12 0.26,-0.26 0,-0.02 0.02,-0.04 0.04,-0.04l2.06 0c0.02,0 0.04,0.02 0.04,0.04 0,0.15 0.12,0.26 0.26,0.26 0.02,0 0.04,0.02 0.04,0.04zm-0.81 0.39c0,0.31 -0.25,0.57 -0.57,0.57 -0.31,0 -0.57,-0.25 -0.57,-0.57 0,-0.31 0.25,-0.57 0.57,-0.57 0.31,0 0.57,0.25 0.57,0.57zm-0.09 0c0,-0.26 -0.21,-0.48 -0.48,-0.48 -0.26,0 -0.48,0.21 -0.48,0.48 0,0.26 0.21,0.48 0.48,0.48 0.26,0 0.48,-0.21 0.48,-0.48z"/>
    <circle class="fil0 str0" cx="3.17" cy="2.52" r="0.49"/>
    <path class="fil1 str1" d="M3.38 2.32l-0.26 0.35c-0,0 -0.01,0.01 -0.02,0.01 -0.01,0 -0.01,-0 -0.02,-0.01l-0.14 -0.15c-0,-0 -0.01,-0.01 -0.01,-0.01 -0.01,0 -0.02,0.01 -0.02,0.02 0,0 0,0.01 0,0.01l0.14 0.15c0.01,0.01 0.03,0.02 0.04,0.02 0.02,0 0.03,-0.01 0.05,-0.02l0.26 -0.35c0,-0 0,-0.01 0,-0.01 0,-0.01 -0.01,-0.02 -0.02,-0.02 -0.01,0 -0.01,0 -0.01,0.01l0 0z"/>
   </g>
  </g>
 </g>
</svg>
