<?xml version="1.0" encoding="UTF-8"?>
<!DOCTYPE svg PUBLIC "-//W3C//DTD SVG 1.1//EN" "http://www.w3.org/Graphics/SVG/1.1/DTD/svg11.dtd">
<!-- Creator: CorelDRAW -->
<svg xmlns="http://www.w3.org/2000/svg" xml:space="preserve" width="0.183335in" height="0.183335in" version="1.1" style="shape-rendering:geometricPrecision; text-rendering:geometricPrecision; image-rendering:optimizeQuality; fill-rule:evenodd; clip-rule:evenodd"
viewBox="0 0 3.7 3.7"
 xmlns:xlink="http://www.w3.org/1999/xlink"
 xmlns:xodm="http://www.corel.com/coreldraw/odm/2003">
 <defs>
  <style type="text/css">
   <![CDATA[
    .fil0 {fill:none}
    .fil1 {fill:#244457;fill-rule:nonzero}
   ]]>
  </style>
 </defs>
 <g id="Слой_x0020_1">
  <metadata id="CorelCorpID_0Corel-Layer"/>
  <g id="_1849346351712">
   <rect class="fil0" x="-0" y="-0" width="3.7" height="3.7"/>
   <g>
    <g>
     <g>
      <path class="fil1" d="M1.56 3.17c-0.01,0.01 -0.03,0.02 -0.04,0.01l-0.24 -0.1 -0.13 0.22c-0.01,0.02 -0.03,0.02 -0.04,0.01 -0.02,-0.01 -0.02,-0.03 -0.01,-0.04l0 0 0.14 -0.25c0.01,-0.01 0.03,-0.02 0.04,-0.01l0.26 0.12c0.02,0.01 0.02,0.03 0.02,0.04 -0,0 -0,0 -0,0l0 0z"/>
      <path class="fil1" d="M2.55 3.28c-0.09,0.16 -0.25,0.28 -0.43,0.33 -0.18,0.05 -0.38,0.02 -0.54,-0.07 -0.16,-0.1 -0.28,-0.25 -0.33,-0.43 -0,-0.02 0.01,-0.04 0.02,-0.04 0.02,-0 0.04,0.01 0.04,0.02 0.04,0.17 0.15,0.31 0.3,0.39 0.15,0.09 0.32,0.11 0.49,0.07 0.22,-0.06 0.38,-0.22 0.45,-0.43 0.01,-0.02 0.02,-0.03 0.04,-0.02 0.02,0.01 0.03,0.02 0.02,0.04 -0.02,0.05 -0.04,0.1 -0.06,0.14l0 0z"/>
     </g>
     <g>
      <path class="fil1" d="M2.45 0.62c-0,0.01 -0.01,0.01 -0.02,0.02 -0.02,0 -0.04,-0.01 -0.04,-0.02 -0.09,-0.34 -0.45,-0.55 -0.79,-0.46 -0.21,0.06 -0.38,0.22 -0.45,0.43 -0.01,0.02 -0.02,0.03 -0.04,0.02 -0.02,-0.01 -0.03,-0.02 -0.02,-0.04 0.07,-0.23 0.26,-0.41 0.49,-0.47 0.38,-0.1 0.77,0.13 0.87,0.5 0,0.01 0,0.02 -0,0.02l0 0z"/>
      <path class="fil1" d="M2.61 0.43l0 0 -0.14 0.25c-0.01,0.01 -0.03,0.02 -0.04,0.01l-0.26 -0.12c-0.02,-0.01 -0.02,-0.03 -0.02,-0.04 0.01,-0.02 0.03,-0.02 0.04,-0.02l0.24 0.1 0.13 -0.22c0.01,-0.02 0.03,-0.02 0.04,-0.01 0.02,0.01 0.02,0.03 0.01,0.04l0 0z"/>
     </g>
    </g>
    <path class="fil1" d="M1.85 1.71c0.03,0 0.05,0.02 0.05,0.05 0,0.02 0.02,0.04 0.04,0.04 0.02,0 0.04,-0.02 0.04,-0.04 0,-0.06 -0.04,-0.1 -0.09,-0.12l0 -0.03c0,-0.02 -0.02,-0.04 -0.04,-0.04 -0.02,0 -0.04,0.02 -0.04,0.04l0 0.03c-0.05,0.02 -0.09,0.06 -0.09,0.12 0,0.07 0.06,0.13 0.13,0.13 0.03,0 0.05,0.02 0.05,0.05 0,0.03 -0.02,0.05 -0.05,0.05 -0.03,0 -0.05,-0.02 -0.05,-0.05 0,-0.02 -0.02,-0.04 -0.04,-0.04 -0.02,0 -0.04,0.02 -0.04,0.04 0,0.06 0.04,0.1 0.09,0.12l0 0.03c0,0.02 0.02,0.04 0.04,0.04 0.02,0 0.04,-0.02 0.04,-0.04l0 -0.03c0.05,-0.02 0.09,-0.06 0.09,-0.12 0,-0.07 -0.06,-0.13 -0.13,-0.13 -0.03,0 -0.05,-0.02 -0.05,-0.05 0,-0.03 0.02,-0.05 0.05,-0.05l0 0zm-1.17 -0.82l1.51 0c0.09,0 0.52,-0 0.78,0 0.14,0 0.18,-0 0.29,0.08 0.09,0.07 0.15,0.18 0.15,0.3l0 1.15c0,0.21 -0.17,0.38 -0.38,0.38l-2.35 0c-0.21,0 -0.38,-0.17 -0.38,-0.38l0 -1.15c0,-0.21 0.17,-0.38 0.38,-0.38zm2.4 0.08c0,0 0,0 0,0 -0.05,-0.01 -0,-0 -0.84,-0l-1.56 0c-0.17,0 -0.31,0.14 -0.31,0.31l0 1.15c0,0.17 0.14,0.31 0.31,0.31l2.35 0c0.17,0 0.31,-0.14 0.31,-0.31l0 -1.15c0,-0.15 -0.11,-0.27 -0.25,-0.3l0 0zm-0.02 0.53l0 0.69c0,0.02 -0.02,0.04 -0.04,0.04 -0.13,0 -0.23,0.1 -0.23,0.23 0,0.02 -0.02,0.04 -0.04,0.04l-1.81 0c-0.02,0 -0.04,-0.02 -0.04,-0.04 0,-0.13 -0.1,-0.23 -0.23,-0.23 -0.02,0 -0.04,-0.02 -0.04,-0.04l0 -0.69c0,-0.02 0.02,-0.04 0.04,-0.04 0.13,0 0.23,-0.1 0.23,-0.23 0,-0.02 0.02,-0.04 0.04,-0.04l1.81 0c0.02,0 0.04,0.02 0.04,0.04 0,0.13 0.1,0.23 0.23,0.23 0.02,0 0.04,0.02 0.04,0.04l0 0zm-0.08 0.04c-0.14,-0.02 -0.25,-0.13 -0.27,-0.27l-1.73 0c-0.02,0.14 -0.13,0.25 -0.27,0.27l0 0.62c0.14,0.02 0.25,0.13 0.27,0.27l1.73 0c0.02,-0.14 0.13,-0.25 0.27,-0.27l0 -0.62zm-0.64 0.31c0,0.27 -0.22,0.5 -0.5,0.5 -0.27,0 -0.5,-0.22 -0.5,-0.5 0,-0.27 0.22,-0.5 0.5,-0.5 0.27,0 0.5,0.22 0.5,0.5zm-0.08 0c0,-0.23 -0.19,-0.42 -0.42,-0.42 -0.23,0 -0.42,0.19 -0.42,0.42 0,0.23 0.19,0.42 0.42,0.42 0.23,0 0.42,-0.19 0.42,-0.42z"/>
   </g>
  </g>
 </g>
</svg>
