<?xml version="1.0" encoding="UTF-8"?>
<!DOCTYPE svg PUBLIC "-//W3C//DTD SVG 1.1//EN" "http://www.w3.org/Graphics/SVG/1.1/DTD/svg11.dtd">
<!-- Creator: CorelDRAW -->
<svg xmlns="http://www.w3.org/2000/svg" xml:space="preserve" width="0.183335in" height="0.183335in" version="1.1" style="shape-rendering:geometricPrecision; text-rendering:geometricPrecision; image-rendering:optimizeQuality; fill-rule:evenodd; clip-rule:evenodd"
viewBox="0 0 1.98 1.98"
 xmlns:xlink="http://www.w3.org/1999/xlink"
 xmlns:xodm="http://www.corel.com/coreldraw/odm/2003">
 <defs>
  <style type="text/css">
   <![CDATA[
    .fil0 {fill:none}
    .fil1 {fill:#00718f;fill-rule:nonzero}
   ]]>
  </style>
 </defs>
 <g id="Слой_x0020_1">
  <metadata id="CorelCorpID_0Corel-Layer"/>
  <g id="_1847683680656">
   <rect class="fil0" x="-0" y="-0" width="1.98" height="1.98"/>
   <g>
    <g>
     <path class="fil1" d="M1.53 1.78l-1.08 0c-0.06,0 -0.11,-0.05 -0.11,-0.11l0 -0.2c0,-0.31 0.25,-0.56 0.56,-0.56l0.17 0c0.31,0 0.56,0.25 0.56,0.56l0 0.2c0,0.06 -0.05,0.11 -0.11,0.11l0 0zm-0.63 -0.84c-0.29,0 -0.53,0.24 -0.53,0.53l0 0.2c0,0.04 0.03,0.08 0.08,0.08l1.08 0c0.04,0 0.08,-0.03 0.08,-0.08l0 -0.2c0,-0.29 -0.24,-0.53 -0.53,-0.53l-0.17 0z"/>
    </g>
    <g>
     <path class="fil1" d="M1.08 1.08l-0.17 0 0 -0.17 0.17 0 0 0.17zm-0.14 -0.03l0.11 0 0 -0.11 -0.11 0 0 0.11z"/>
    </g>
    <g>
     <path class="fil1" d="M0.99 1.65l-0.17 -0.16 0.08 -0.43 0 -0.15 0.17 0 0 0.15 0.08 0.43 -0.16 0.16zm-0.13 -0.17l0.13 0.13 0.13 -0.13 -0.08 -0.42 0 -0.13 -0.11 0 0 0.13 -0.08 0.41z"/>
    </g>
    <g>
     <path class="fil1" d="M0.99 0.94c-0.2,0 -0.37,-0.16 -0.37,-0.37 0,-0.2 0.16,-0.37 0.37,-0.37 0.2,0 0.37,0.16 0.37,0.37 0,0.2 -0.16,0.37 -0.37,0.37zm0 -0.7c-0.19,0 -0.34,0.15 -0.34,0.34 0,0.19 0.15,0.34 0.34,0.34 0.19,0 0.34,-0.15 0.34,-0.34 0,-0.19 -0.15,-0.34 -0.34,-0.34z"/>
    </g>
   </g>
  </g>
 </g>
</svg>
