<?xml version="1.0" encoding="UTF-8"?>
<!DOCTYPE svg PUBLIC "-//W3C//DTD SVG 1.1//EN" "http://www.w3.org/Graphics/SVG/1.1/DTD/svg11.dtd">
<!-- Creator: CorelDRAW -->
<svg xmlns="http://www.w3.org/2000/svg" xml:space="preserve" width="0.183335in" height="0.183335in" version="1.1" style="shape-rendering:geometricPrecision; text-rendering:geometricPrecision; image-rendering:optimizeQuality; fill-rule:evenodd; clip-rule:evenodd"
viewBox="0 0 1.98 1.98"
 xmlns:xlink="http://www.w3.org/1999/xlink"
 xmlns:xodm="http://www.corel.com/coreldraw/odm/2003">
 <defs>
  <style type="text/css">
   <![CDATA[
    .fil0 {fill:none}
    .fil1 {fill:#00718f;fill-rule:nonzero}
   ]]>
  </style>
 </defs>
 <g id="Слой_x0020_1">
  <metadata id="CorelCorpID_0Corel-Layer"/>
  <g id="_1848435280320">
   <rect class="fil0" x="-0" y="-0" width="1.98" height="1.98"/>
   <g>
    <path class="fil1" d="M0.99 0.91c0.16,0 0.28,-0.13 0.28,-0.28 0,-0.16 -0.13,-0.28 -0.28,-0.28 -0.16,0 -0.28,0.13 -0.28,0.28 0,0.16 0.13,0.28 0.28,0.28zm0 -0.54c0.14,0 0.26,0.12 0.26,0.26 0,0.14 -0.12,0.26 -0.26,0.26 -0.14,0 -0.26,-0.12 -0.26,-0.26 0,-0.14 0.12,-0.26 0.26,-0.26z"/>
    <path class="fil1" d="M1.87 1.22c-0.07,-0.07 -0.15,-0.1 -0.25,-0.1 0.11,-0 0.21,-0.09 0.21,-0.21 0,-0.11 -0.09,-0.21 -0.21,-0.21 -0.11,0 -0.21,0.09 -0.21,0.21 0,0.11 0.09,0.21 0.21,0.21 -0.07,0 -0.14,0.02 -0.2,0.07 -0.02,-0.04 -0.05,-0.09 -0.09,-0.12 -0.09,-0.09 -0.21,-0.14 -0.34,-0.14 -0.18,0 -0.35,0.1 -0.43,0.26 -0.06,-0.04 -0.13,-0.07 -0.2,-0.07 0.11,-0 0.21,-0.09 0.21,-0.21 0,-0.11 -0.09,-0.21 -0.21,-0.21 -0.11,0 -0.21,0.09 -0.21,0.21 0,0.11 0.09,0.21 0.21,0.21 -0.19,0 -0.35,0.16 -0.35,0.35l0 0.09c0,0.05 0.04,0.09 0.09,0.09l0.52 0c0,0 0,-0 0,-0 0,0 0,0 0,0l0.73 0c0,0 0,-0 0,-0 0,0 0,0 0,0 0,0 0,0 0,0l0.52 0c0.05,0 0.09,-0.04 0.09,-0.09l0 -0.09c0,-0.09 -0.04,-0.18 -0.1,-0.25l0 0zm-0.43 -0.31c0,-0.1 0.08,-0.18 0.18,-0.18 0.1,0 0.18,0.08 0.18,0.18 0,0.1 -0.08,0.18 -0.18,0.18 -0.1,0 -0.18,-0.08 -0.18,-0.18zm-1.26 0c0,-0.1 0.08,-0.18 0.18,-0.18 0.1,0 0.18,0.08 0.18,0.18 0,0.1 -0.08,0.18 -0.18,0.18 -0.1,0 -0.18,-0.08 -0.18,-0.18zm-0.08 0.71c-0.04,0 -0.06,-0.03 -0.06,-0.06l0 -0.09c0,-0.18 0.15,-0.33 0.33,-0.33 0.07,0 0.14,0.02 0.19,0.06 -0,0.01 -0.01,0.02 -0.01,0.02 -0,0.01 -0.01,0.01 -0.01,0.02 -0,0.01 -0.01,0.02 -0.01,0.03 -0,0.01 -0,0.01 -0.01,0.02 -0,0.01 -0,0.02 -0.01,0.03 -0,0.01 -0,0.01 -0,0.02 -0,0.02 -0,0.03 -0,0.05l0 0.13c0,0.01 0,0.01 0,0.02 0,0 0,0 0,0 0,0.01 0,0.01 0.01,0.02 0,0 0,0 0,0 0,0.01 0,0.01 0.01,0.01 0,0 0,0 0,0 0,0 0.01,0.01 0.01,0.01 0,0 0,0 0,0 0,0 0.01,0.01 0.01,0.01l-0.46 0zm0.53 0l-0 -0c-0.05,-0 -0.09,-0.04 -0.09,-0.09l0 -0.13c0,-0.02 0,-0.03 0,-0.05 0.01,-0.05 0.02,-0.1 0.04,-0.14 0.08,-0.16 0.24,-0.26 0.41,-0.26 0.12,0 0.24,0.05 0.32,0.13 0.04,0.04 0.07,0.08 0.09,0.13 0.03,0.06 0.04,0.13 0.04,0.2l0 0.13c0,0.05 -0.04,0.09 -0.09,0.09l-0.73 0zm1.32 -0.06c0,0.04 -0.03,0.06 -0.06,0.06l-0.46 -0c0,-0 0.01,-0.01 0.01,-0.01 0,-0 0,-0 0,-0 0,-0 0.01,-0.01 0.01,-0.02 0,-0 0,-0 0,-0 0,-0.01 0.01,-0.01 0.01,-0.02 0,-0 0,-0 0,-0 0,-0.01 0,-0.01 0.01,-0.02 0,-0 0,-0 0,-0 0,-0.01 0,-0.01 0,-0.02l0 -0.13c0,-0.02 -0,-0.04 -0,-0.05 -0,-0.01 -0,-0.01 -0,-0.02 -0,-0.01 -0,-0.02 -0.01,-0.03 -0,-0.01 -0,-0.01 -0.01,-0.02 -0,-0.01 -0.01,-0.02 -0.01,-0.03 -0,-0.01 -0.01,-0.01 -0.01,-0.02 -0,-0.01 -0.01,-0.02 -0.01,-0.02 0.06,-0.04 0.12,-0.06 0.19,-0.06 0.09,0 0.17,0.03 0.23,0.1 0.06,0.06 0.1,0.14 0.1,0.23l-0 0.09z"/>
   </g>
  </g>
 </g>
</svg>
