<?xml version="1.0" encoding="UTF-8"?>
<!DOCTYPE svg PUBLIC "-//W3C//DTD SVG 1.1//EN" "http://www.w3.org/Graphics/SVG/1.1/DTD/svg11.dtd">
<!-- Creator: CorelDRAW -->
<svg xmlns="http://www.w3.org/2000/svg" xml:space="preserve" width="0.183335in" height="0.183335in" version="1.1" style="shape-rendering:geometricPrecision; text-rendering:geometricPrecision; image-rendering:optimizeQuality; fill-rule:evenodd; clip-rule:evenodd"
viewBox="0 0 2.5 2.5"
 xmlns:xlink="http://www.w3.org/1999/xlink"
 xmlns:xodm="http://www.corel.com/coreldraw/odm/2003">
 <defs>
  <style type="text/css">
   <![CDATA[
    .fil0 {fill:none}
    .fil1 {fill:#244457;fill-rule:nonzero}
   ]]>
  </style>
 </defs>
 <g id="Слой_x0020_1">
  <metadata id="CorelCorpID_0Corel-Layer"/>
  <g id="_1847689383424">
   <rect class="fil0" x="-0" y="-0" width="2.5" height="2.5"/>
   <g>
    <g>
     <path class="fil1" d="M1.91 0.92l-0.15 0 0 -0.22c0,-0.08 -0.06,-0.14 -0.14,-0.14l-0.19 0 0 -0.48 -0.09 0.09 -0.07 -0.07 -0.07 0.07 -0.07 -0.07 -0.07 0.07 -0.07 -0.07 -0.07 0.07 -0.09 -0.09 0 0.48 -0.19 0c-0.08,0 -0.14,0.06 -0.14,0.14l0 1.59c0,0.08 0.06,0.14 0.14,0.14l0.98 0c0.08,0 0.14,-0.06 0.14,-0.14l0 -0.1 0.15 0c0.05,0 0.09,-0.04 0.09,-0.09l0 -1.07c0,-0.05 -0.04,-0.09 -0.09,-0.09l0 0zm-0.99 -0.7l0.07 -0.07 0.07 0.07 0.07 -0.07 0.07 0.07 0.07 -0.07 0.07 0.07 0.05 -0.05 0 0.51 -0.52 0 0 -0.51 0.05 0.05zm0.8 2.06c0,0.06 -0.05,0.1 -0.1,0.1l-0.98 0c-0.06,0 -0.1,-0.04 -0.1,-0.1l0 -1.59c0,-0.06 0.04,-0.1 0.1,-0.1l0.19 0 0 0.09 -0.03 0 0 0.04 0.67 0 0 -0.04 -0.03 0 0 -0.09 0.19 0c0.06,0 0.1,0.05 0.1,0.1l0 1.59 0 0zm0.24 -0.2c0,0.03 -0.02,0.05 -0.05,0.05l-0.15 0 0 -1.18 0.15 0c0.03,0 0.05,0.02 0.05,0.05l0 1.07z"/>
     <path class="fil1" d="M1.53 0.82l-0.79 0c-0.05,0 -0.08,0.04 -0.08,0.08l0 0.37c0,0.05 0.04,0.08 0.08,0.08l0.79 0c0.05,0 0.08,-0.04 0.08,-0.08l0 -0.37c0,-0.05 -0.04,-0.08 -0.08,-0.08l0 0zm0.04 0.45c0,0.02 -0.02,0.04 -0.04,0.04l-0.79 0c-0.02,0 -0.04,-0.02 -0.04,-0.04l0 -0.37c0,-0.02 0.02,-0.04 0.04,-0.04l0.79 0c0.02,0 0.04,0.02 0.04,0.04l0 0.37z"/>
     <path class="fil1" d="M1.19 1.43l-0.13 0c-0.03,0 -0.06,0.03 -0.06,0.06l0 0.13c0,0.03 0.03,0.06 0.06,0.06l0.13 0c0.03,0 0.06,-0.03 0.06,-0.06l0 -0.13c0,-0.03 -0.03,-0.06 -0.06,-0.06l0 0zm0.02 0.19c0,0.01 -0.01,0.02 -0.02,0.02l-0.13 0c-0.01,0 -0.02,-0.01 -0.02,-0.02l0 -0.13c0,-0.01 0.01,-0.02 0.02,-0.02l0.13 0c0.01,0 0.02,0.01 0.02,0.02l0 0.13z"/>
     <path class="fil1" d="M1.5 1.43l-0.13 0c-0.03,0 -0.06,0.03 -0.06,0.06l0 0.13c0,0.03 0.03,0.06 0.06,0.06l0.13 0c0.03,0 0.06,-0.03 0.06,-0.06l0 -0.13c0,-0.03 -0.03,-0.06 -0.06,-0.06l0 0zm0.02 0.19c0,0.01 -0.01,0.02 -0.02,0.02l-0.13 0c-0.01,0 -0.02,-0.01 -0.02,-0.02l0 -0.13c0,-0.01 0.01,-0.02 0.02,-0.02l0.13 0c0.01,0 0.02,0.01 0.02,0.02l0 0.13z"/>
     <path class="fil1" d="M0.89 1.75l-0.13 0c-0.03,0 -0.06,0.03 -0.06,0.06l0 0.13c0,0.03 0.03,0.06 0.06,0.06l0.13 0c0.03,0 0.06,-0.03 0.06,-0.06l0 -0.13c0,-0.03 -0.03,-0.06 -0.06,-0.06l0 0zm0.02 0.19c0,0.01 -0.01,0.02 -0.02,0.02l-0.13 0c-0.01,0 -0.02,-0.01 -0.02,-0.02l0 -0.13c0,-0.01 0.01,-0.02 0.02,-0.02l0.13 0c0.01,0 0.02,0.01 0.02,0.02l0 0.13z"/>
     <path class="fil1" d="M1.19 1.75l-0.13 0c-0.03,0 -0.06,0.03 -0.06,0.06l0 0.13c0,0.03 0.03,0.06 0.06,0.06l0.13 0c0.03,0 0.06,-0.03 0.06,-0.06l0 -0.13c0,-0.03 -0.03,-0.06 -0.06,-0.06l0 0zm0.02 0.19c0,0.01 -0.01,0.02 -0.02,0.02l-0.13 0c-0.01,0 -0.02,-0.01 -0.02,-0.02l0 -0.13c0,-0.01 0.01,-0.02 0.02,-0.02l0.13 0c0.01,0 0.02,0.01 0.02,0.02l0 0.13z"/>
     <path class="fil1" d="M0.89 2.07l-0.13 0c-0.03,0 -0.06,0.03 -0.06,0.06l0 0.13c0,0.03 0.03,0.06 0.06,0.06l0.13 0c0.03,0 0.06,-0.03 0.06,-0.06l0 -0.13c0,-0.03 -0.03,-0.06 -0.06,-0.06zm0.02 0.19c0,0.01 -0.01,0.02 -0.02,0.02l-0.13 0c-0.01,0 -0.02,-0.01 -0.02,-0.02l0 -0.13c0,-0.01 0.01,-0.02 0.02,-0.02l0.13 0c0.01,0 0.02,0.01 0.02,0.02l0 0.13z"/>
     <path class="fil1" d="M1.19 2.07l-0.13 0c-0.03,0 -0.06,0.03 -0.06,0.06l0 0.13c0,0.03 0.03,0.06 0.06,0.06l0.13 0c0.03,0 0.06,-0.03 0.06,-0.06l0 -0.13c0,-0.03 -0.03,-0.06 -0.06,-0.06zm0.02 0.19c0,0.01 -0.01,0.02 -0.02,0.02l-0.13 0c-0.01,0 -0.02,-0.01 -0.02,-0.02l0 -0.13c0,-0.01 0.01,-0.02 0.02,-0.02l0.13 0c0.01,0 0.02,0.01 0.02,0.02l0 0.13z"/>
     <path class="fil1" d="M1.5 1.75l-0.13 0c-0.03,0 -0.06,0.03 -0.06,0.06l0 0.44c0,0.03 0.03,0.06 0.06,0.06l0.13 0c0.03,0 0.06,-0.03 0.06,-0.06l0 -0.44c0,-0.03 -0.03,-0.06 -0.06,-0.06l0 0zm0.02 0.5c0,0.01 -0.01,0.02 -0.02,0.02l-0.13 0c-0.01,0 -0.02,-0.01 -0.02,-0.02l0 -0.44c0,-0.01 0.01,-0.02 0.02,-0.02l0.13 0c0.01,0 0.02,0.01 0.02,0.02l0 0.44z"/>
     <path class="fil1" d="M0.89 1.43l-0.13 0c-0.03,0 -0.06,0.03 -0.06,0.06l0 0.13c0,0.03 0.03,0.06 0.06,0.06l0.13 0c0.03,0 0.06,-0.03 0.06,-0.06l0 -0.13c0,-0.03 -0.03,-0.06 -0.06,-0.06l0 0zm0.02 0.19c0,0.01 -0.01,0.02 -0.02,0.02l-0.13 0c-0.01,0 -0.02,-0.01 -0.02,-0.02l0 -0.13c0,-0.01 0.01,-0.02 0.02,-0.02l0.13 0c0.01,0 0.02,0.01 0.02,0.02l0 0.13z"/>
     <polygon class="fil1" points="0.96,0.33 1.31,0.33 1.31,0.37 0.96,0.37 "/>
     <polygon class="fil1" points="0.96,0.44 1.31,0.44 1.31,0.48 0.96,0.48 "/>
     <polygon class="fil1" points="0.96,0.55 1.31,0.55 1.31,0.59 0.96,0.59 "/>
    </g>
   </g>
  </g>
 </g>
</svg>
