<?xml version="1.0" encoding="UTF-8"?>
<!DOCTYPE svg PUBLIC "-//W3C//DTD SVG 1.1//EN" "http://www.w3.org/Graphics/SVG/1.1/DTD/svg11.dtd">
<!-- Creator: CorelDRAW -->
<svg xmlns="http://www.w3.org/2000/svg" xml:space="preserve" width="0.183335in" height="0.183335in" version="1.1" style="shape-rendering:geometricPrecision; text-rendering:geometricPrecision; image-rendering:optimizeQuality; fill-rule:evenodd; clip-rule:evenodd"
viewBox="0 0 1.98 1.98"
 xmlns:xlink="http://www.w3.org/1999/xlink"
 xmlns:xodm="http://www.corel.com/coreldraw/odm/2003">
 <defs>
  <style type="text/css">
   <![CDATA[
    .fil0 {fill:none}
    .fil1 {fill:#244457;fill-rule:nonzero}
   ]]>
  </style>
 </defs>
 <g id="Слой_x0020_1">
  <metadata id="CorelCorpID_0Corel-Layer"/>
  <g id="_1848432383008">
   <rect class="fil0" x="-0" y="-0" width="1.98" height="1.98"/>
   <g>
    <g>
     <g id="Layer_1">
      <g>
       <path class="fil1" d="M1.6 1.24c-0.06,-0.1 -0.15,-0.19 -0.26,-0.25 -0.05,-0.03 -0.11,-0.05 -0.17,-0.07 -0.01,-0 -0.01,-0 -0.02,-0.01l-0.02 -0.01c-0.05,-0.01 -0.1,-0.01 -0.14,-0.01 -0.05,0 -0.1,0 -0.14,0.01l-0.02 0.01c-0.01,0 -0.01,0 -0.02,0.01 -0.06,0.02 -0.12,0.04 -0.17,0.07 -0.11,0.06 -0.19,0.15 -0.26,0.25 -0.02,0.04 -0.04,0.08 -0.04,0.13 0,0.04 0.01,0.08 0.03,0.12 0.02,0.04 0.05,0.07 0.09,0.09 0.04,0.02 0.08,0.04 0.13,0.04l0.26 0 0.14 0.12 0.14 -0.12 0.26 0c0.05,0 0.09,-0.01 0.13,-0.04 0.04,-0.02 0.07,-0.05 0.09,-0.09 0.02,-0.04 0.03,-0.08 0.03,-0.12 0,-0.05 -0.01,-0.09 -0.04,-0.13l0 0zm-0.61 -0.32c0.04,0 0.09,0 0.13,0.01l-0.07 0.15 -0.13 0 -0.07 -0.15c0.04,-0.01 0.09,-0.01 0.13,-0.01l0 0zm-0.59 0.55c-0.04,-0.07 -0.04,-0.15 0,-0.22 0.09,-0.16 0.25,-0.27 0.42,-0.31l0.07 0.16 -0.08 0.48 -0.23 0c-0.08,0 -0.15,-0.04 -0.19,-0.11l0 0zm0.45 0.11l0.08 -0.47 0.12 0 0.08 0.47 -0.13 0.11 -0.13 -0.11zm0.72 -0.11c-0.04,0.07 -0.11,0.11 -0.19,0.11l-0.23 0 -0.08 -0.48 0.07 -0.16c0.18,0.04 0.33,0.16 0.42,0.31 0.04,0.07 0.04,0.15 0,0.22l0 0z"/>
       <path class="fil1" d="M0.79 0.73c0.03,0.03 0.06,0.05 0.09,0.06 0.03,0.01 0.07,0.02 0.11,0.02 0.04,0 0.07,-0.01 0.11,-0.02 0.03,-0.01 0.06,-0.03 0.09,-0.06 0.03,-0.03 0.05,-0.06 0.06,-0.09 0.01,-0.03 0.02,-0.07 0.02,-0.11 0,-0.04 -0.01,-0.07 -0.02,-0.11 -0.01,-0.03 -0.03,-0.06 -0.06,-0.09 -0.03,-0.03 -0.06,-0.05 -0.09,-0.06 -0.03,-0.01 -0.07,-0.02 -0.11,-0.02 -0.04,0 -0.07,0.01 -0.11,0.02 -0.03,0.01 -0.06,0.03 -0.09,0.06 -0.03,0.03 -0.05,0.06 -0.06,0.09 -0.01,0.03 -0.02,0.07 -0.02,0.11 0,0.04 0.01,0.07 0.02,0.11 0.01,0.03 0.03,0.06 0.06,0.09zm0.2 -0.45c0.14,0 0.25,0.11 0.25,0.25 0,0.14 -0.11,0.25 -0.25,0.25 -0.14,0 -0.25,-0.11 -0.25,-0.25 0,-0.14 0.11,-0.25 0.25,-0.25z"/>
      </g>
     </g>
    </g>
   </g>
  </g>
 </g>
</svg>
