<?xml version="1.0" encoding="UTF-8"?>
<!DOCTYPE svg PUBLIC "-//W3C//DTD SVG 1.1//EN" "http://www.w3.org/Graphics/SVG/1.1/DTD/svg11.dtd">
<!-- Creator: CorelDRAW -->
<svg xmlns="http://www.w3.org/2000/svg" xml:space="preserve" width="0.183335in" height="0.183335in" version="1.1" style="shape-rendering:geometricPrecision; text-rendering:geometricPrecision; image-rendering:optimizeQuality; fill-rule:evenodd; clip-rule:evenodd"
viewBox="0 0 3.7 3.7"
 xmlns:xlink="http://www.w3.org/1999/xlink"
 xmlns:xodm="http://www.corel.com/coreldraw/odm/2003">
 <defs>
  <style type="text/css">
   <![CDATA[
    .fil0 {fill:none}
    .fil1 {fill:#244457}
    .fil2 {fill:#244457;fill-rule:nonzero}
   ]]>
  </style>
 </defs>
 <g id="Слой_x0020_1">
  <metadata id="CorelCorpID_0Corel-Layer"/>
  <g id="_1811326532560">
   <rect class="fil0" x="-0" y="-0" width="3.7" height="3.7"/>
   <g>
    <path class="fil1" d="M1.85 3.41c-0,0 -0.01,-0 -0.01,-0 -1.53,-0.53 -1.34,-2.33 -1.32,-2.54 0,-0.02 0.01,-0.03 0.03,-0.04 0.92,-0.07 1.26,-0.52 1.26,-0.53 0.01,-0.02 0.04,-0.02 0.06,0 0,0 0.35,0.46 1.26,0.53 0.02,0 0.03,0.02 0.03,0.04 0.03,0.2 0.22,2 -1.32,2.54 -0,0 -0.01,0 -0.01,0l0 0zm-1.26 -2.51c-0.03,0.29 -0.16,1.93 1.26,2.43 1.42,-0.5 1.29,-2.14 1.26,-2.43 -0.79,-0.07 -1.16,-0.41 -1.26,-0.52 -0.1,0.11 -0.47,0.45 -1.26,0.52z"/>
    <path id="XMLID_1317_" class="fil2" d="M1.85 1.29c-0.35,0 -0.63,0.28 -0.63,0.63 0,0.35 0.28,0.63 0.63,0.63 0.35,0 0.63,-0.28 0.63,-0.63 0,-0.35 -0.28,-0.63 -0.63,-0.63zm0 1.19c-0.31,0 -0.56,-0.25 -0.56,-0.56 0,-0.31 0.25,-0.56 0.56,-0.56 0.31,0 0.56,0.25 0.56,0.56 0,0.31 -0.25,0.56 -0.56,0.56z"/>
    <path id="XMLID_1318_" class="fil2" d="M1.85 1.89c-0.06,0 -0.1,-0.05 -0.1,-0.1 0,-0.06 0.05,-0.1 0.1,-0.1 0,0 0,0 0,0 0,0 0,-0 0,-0 0.04,0 0.07,0.02 0.09,0.05 0.01,0.02 0.03,0.02 0.05,0.01 0.02,-0.01 0.02,-0.03 0.01,-0.05 -0.02,-0.04 -0.07,-0.07 -0.11,-0.08l0 -0.07c0,-0.02 -0.01,-0.03 -0.03,-0.03 -0.02,0 -0.03,0.01 -0.03,0.03l0 0.07c-0.08,0.02 -0.14,0.08 -0.14,0.17 0,0.09 0.08,0.17 0.17,0.17 0.06,0 0.1,0.05 0.1,0.1 0,0.06 -0.05,0.1 -0.1,0.1 0,0 -0,-0 -0,-0 -0,0 -0,0 -0,0 -0.04,-0 -0.07,-0.02 -0.09,-0.05 -0.01,-0.02 -0.03,-0.02 -0.05,-0.01 -0.02,0.01 -0.02,0.03 -0.01,0.05 0.02,0.04 0.07,0.07 0.11,0.08l0 0.07c0,0.02 0.01,0.03 0.03,0.03 0.02,0 0.03,-0.01 0.03,-0.03l0 -0.07c0.08,-0.02 0.14,-0.08 0.14,-0.17 0,-0.09 -0.08,-0.17 -0.17,-0.17l0 0z"/>
   </g>
  </g>
 </g>
</svg>
