<?xml version="1.0" encoding="UTF-8"?>
<!DOCTYPE svg PUBLIC "-//W3C//DTD SVG 1.1//EN" "http://www.w3.org/Graphics/SVG/1.1/DTD/svg11.dtd">
<!-- Creator: CorelDRAW -->
<svg xmlns="http://www.w3.org/2000/svg" xml:space="preserve" width="0.183335in" height="0.183335in" version="1.1" style="shape-rendering:geometricPrecision; text-rendering:geometricPrecision; image-rendering:optimizeQuality; fill-rule:evenodd; clip-rule:evenodd"
viewBox="0 0 2.5 2.5"
 xmlns:xlink="http://www.w3.org/1999/xlink"
 xmlns:xodm="http://www.corel.com/coreldraw/odm/2003">
 <defs>
  <style type="text/css">
   <![CDATA[
    .fil0 {fill:none}
    .fil1 {fill:#244457}
   ]]>
  </style>
 </defs>
 <g id="Слой_x0020_1">
  <metadata id="CorelCorpID_0Corel-Layer"/>
  <g id="_1846913923296">
   <rect class="fil0" x="-0" y="-0" width="2.5" height="2.5"/>
   <g>
    <path id="_351409600" class="fil1" d="M1.96 2.31l-1.42 0c-0.14,0 -0.25,-0.11 -0.25,-0.25l0 -1.33c0,-0.01 0.01,-0.02 0.02,-0.02 0.01,0 0.02,0.01 0.02,0.02l0 1.33c0,0.11 0.09,0.2 0.2,0.2l1.42 0c0.11,0 0.2,-0.09 0.2,-0.2l0 -1.62c0,-0.11 -0.09,-0.2 -0.2,-0.2l-1.13 0c-0.01,0 -0.02,-0.01 -0.02,-0.02 0,-0.01 0.01,-0.02 0.02,-0.02l1.13 0c0.14,0 0.25,0.11 0.25,0.25l0 1.62c0,0.14 -0.11,0.25 -0.25,0.25l0 0z"/>
    <path id="_351409912" class="fil1" d="M0.37 0.71l0.44 0 0 -0.43c-0,0 -0.44,0.43 -0.44,0.43l0 0zm0.46 0.05l-0.51 0c-0.01,0 -0.02,-0.01 -0.02,-0.01 -0,-0.01 -0,-0.02 0,-0.02l0.51 -0.51c0.01,-0.01 0.02,-0.01 0.02,-0 0.01,0 0.01,0.01 0.01,0.02l0 0.51c-0,0.01 -0.01,0.02 -0.02,0.02l0 0z"/>
    <g>
     <path id="_351409480" class="fil1" d="M1.8 2.02l-1.16 0c-0.01,0 -0.02,-0.01 -0.02,-0.02 0,-0.01 0.01,-0.02 0.02,-0.02l1.16 0c0.01,0 0.02,0.01 0.02,0.02 0,0.01 -0.01,0.02 -0.02,0.02z"/>
     <path id="_351409480_0" class="fil1" d="M1.8 1.68l-1.16 0c-0.01,0 -0.02,-0.01 -0.02,-0.02 0,-0.01 0.01,-0.02 0.02,-0.02l1.16 0c0.01,0 0.02,0.01 0.02,0.02 0,0.01 -0.01,0.02 -0.02,0.02z"/>
     <path id="_351409480_1" class="fil1" d="M1.8 1.34l-1.16 0c-0.01,0 -0.02,-0.01 -0.02,-0.02 0,-0.01 0.01,-0.02 0.02,-0.02l1.16 0c0.01,0 0.02,0.01 0.02,0.02 0,0.01 -0.01,0.02 -0.02,0.02z"/>
     <path id="_351409480_2" class="fil1" d="M1.8 1l-1.16 0c-0.01,0 -0.02,-0.01 -0.02,-0.02 0,-0.01 0.01,-0.02 0.02,-0.02l1.16 0c0.01,0 0.02,0.01 0.02,0.02 0,0.01 -0.01,0.02 -0.02,0.02z"/>
    </g>
   </g>
  </g>
 </g>
</svg>
