<?xml version="1.0" encoding="UTF-8"?>
<!DOCTYPE svg PUBLIC "-//W3C//DTD SVG 1.1//EN" "http://www.w3.org/Graphics/SVG/1.1/DTD/svg11.dtd">
<!-- Creator: CorelDRAW -->
<svg xmlns="http://www.w3.org/2000/svg" xml:space="preserve" width="0.183335in" height="0.183335in" version="1.1" style="shape-rendering:geometricPrecision; text-rendering:geometricPrecision; image-rendering:optimizeQuality; fill-rule:evenodd; clip-rule:evenodd"
viewBox="0 0 1.98 1.98"
 xmlns:xlink="http://www.w3.org/1999/xlink"
 xmlns:xodm="http://www.corel.com/coreldraw/odm/2003">
 <defs>
  <style type="text/css">
   <![CDATA[
    .fil0 {fill:none}
    .fil1 {fill:#00718f;fill-rule:nonzero}
   ]]>
  </style>
 </defs>
 <g id="Слой_x0020_1">
  <metadata id="CorelCorpID_0Corel-Layer"/>
  <g id="_1848438245920">
   <rect class="fil0" x="-0" y="-0" width="1.98" height="1.98"/>
   <g>
    <path class="fil1" d="M1.63 1.63c-0,0 -0.01,0.01 -0.01,0.01 -0,0 -0.01,-0 -0.01,-0.01l-0.32 -0.32c-0.1,0.1 -0.24,0.15 -0.38,0.15 -0.15,0 -0.29,-0.06 -0.4,-0.16 -0.11,-0.11 -0.16,-0.25 -0.16,-0.4 0,-0.15 0.06,-0.29 0.16,-0.4 0.11,-0.11 0.25,-0.16 0.4,-0.16 0.15,0 0.29,0.06 0.4,0.16 0.11,0.11 0.16,0.25 0.16,0.4 0,0.14 -0.05,0.28 -0.15,0.38l0.32 0.32c0.01,0.01 0.01,0.02 -0,0.03zm-0.2 -0.73c0,-0.14 -0.05,-0.27 -0.15,-0.37 -0.1,-0.1 -0.23,-0.15 -0.37,-0.15 -0.14,0 -0.27,0.05 -0.37,0.15 -0.1,0.1 -0.15,0.23 -0.15,0.37 0,0.14 0.05,0.27 0.15,0.37 0.1,0.1 0.23,0.15 0.37,0.15 0.14,0 0.27,-0.05 0.37,-0.15 0.1,-0.1 0.15,-0.23 0.15,-0.37z"/>
    <path class="fil1" d="M0.9 1.28c-0.21,0 -0.38,-0.17 -0.38,-0.38 0,-0.01 0.01,-0.02 0.02,-0.02 0.01,0 0.02,0.01 0.02,0.02 0,0.19 0.15,0.34 0.34,0.34 0.01,0 0.02,0.01 0.02,0.02 0,0.01 -0.01,0.02 -0.02,0.02z"/>
   </g>
  </g>
 </g>
</svg>
