<?xml version="1.0" encoding="UTF-8"?>
<!DOCTYPE svg PUBLIC "-//W3C//DTD SVG 1.1//EN" "http://www.w3.org/Graphics/SVG/1.1/DTD/svg11.dtd">
<!-- Creator: CorelDRAW -->
<svg xmlns="http://www.w3.org/2000/svg" xml:space="preserve" width="0.183335in" height="0.183335in" version="1.1" style="shape-rendering:geometricPrecision; text-rendering:geometricPrecision; image-rendering:optimizeQuality; fill-rule:evenodd; clip-rule:evenodd"
viewBox="0 0 2.5 2.5"
 xmlns:xlink="http://www.w3.org/1999/xlink"
 xmlns:xodm="http://www.corel.com/coreldraw/odm/2003">
 <defs>
  <style type="text/css">
   <![CDATA[
    .fil0 {fill:none}
    .fil1 {fill:#00718f;fill-rule:nonzero}
   ]]>
  </style>
 </defs>
 <g id="Слой_x0020_1">
  <metadata id="CorelCorpID_0Corel-Layer"/>
  <rect class="fil0" x="-0" y="-0" width="2.5" height="2.5"/>
  <g id="_1811316516080">
   <g>
    <path class="fil1" d="M0.99 1.49c-0.01,0 -0.03,0.01 -0.03,0.03 0,0.01 0.01,0.03 0.03,0.03l0.18 0 0 0.08c0,0.01 0.01,0.03 0.03,0.03 0.01,0 0.03,-0.01 0.03,-0.03l0 -0.04c0,-0 0,-0.01 0,-0.01l0 -0.03 0.08 0c0.07,0 0.13,-0.06 0.13,-0.13l0 -0.1c0,-0.07 -0.06,-0.13 -0.13,-0.13l-0.08 0 0 -0.26 0.18 0c0.01,0 0.03,-0.01 0.03,-0.03 0,-0.01 -0.01,-0.03 -0.03,-0.03l-0.18 0 0 -0.03c0,-0 -0,-0.01 -0,-0.01l0 -0.04c0,-0.01 -0.01,-0.03 -0.03,-0.03 -0.01,0 -0.03,0.01 -0.03,0.03l0 0.08 -0.08 0c-0.07,0 -0.13,0.06 -0.13,0.13l0 0.1c0,0.07 0.06,0.13 0.13,0.13l0.08 0 0 0.26 -0.19 0zm0.24 -0.26l0.08 0c0.04,0 0.08,0.04 0.08,0.08l0 0.1c0,0.04 -0.04,0.08 -0.08,0.08l-0.08 -0 0 -0.26zm-0.13 -0.05c-0.04,0 -0.08,-0.04 -0.08,-0.08l0 -0.1c0,-0.04 0.04,-0.08 0.08,-0.08l0.08 0 0 0.26 -0.08 0z"/>
    <path class="fil1" d="M2.22 1l0 -0.69c0,-0.04 -0.04,-0.08 -0.08,-0.08l-1.89 0c-0.04,0 -0.08,0.04 -0.08,0.08l0 0.37 0 0.31 0 0.42 0 0.31 0 0.37c0,0.04 0.04,0.08 0.08,0.08l0.08 -0 0 0.08c0,0.01 0.01,0.03 0.03,0.03l0.31 0c0.01,0 0.03,-0.01 0.03,-0.03l0 -0.08 1 0 0 0.08c0,0.01 0.01,0.03 0.03,0.03l0.31 0c0.01,0 0.03,-0.01 0.03,-0.03l0 -0.08 0.08 0c0.04,0 0.08,-0.04 0.08,-0.08l0 -0.69c0.06,-0.04 0.1,-0.11 0.1,-0.2 0,-0.08 -0.04,-0.15 -0.1,-0.2zm-1.99 -0.69c0,-0.01 0.01,-0.03 0.03,-0.03l1.89 0c0.01,0 0.03,0.01 0.03,0.03l0 0.67c-0.02,-0.01 -0.05,-0.01 -0.08,-0.01 -0.03,0 -0.05,0.01 -0.08,0.01l0 -0.51c0,-0.01 -0.01,-0.03 -0.03,-0.03l-1.57 0c-0.01,0 -0.03,0.01 -0.03,0.03l0 0.18 -0.16 0 0 -0.34zm1.73 0.18l0 0.51c-0.06,0.04 -0.1,0.11 -0.1,0.2 0,0.08 0.04,0.15 0.1,0.2l0 0.51 -1.52 0 0 -0.18 0 -0.31 0 -0.42 0 -0.31 0 -0.18 1.52 0zm-1.73 0.21l0.16 0 0 0.26 -0.16 0 0 -0.26zm0 0.31l0.16 0 0 0.37 -0.16 0 0 -0.37zm0 0.42l0.16 0 0 0.26 -0.16 0 0 -0.26zm0.42 0.79l-0.26 0 0 -0.05 0.26 0 0 0.05zm1.36 0l-0.26 0 0 -0.05 0.26 0 0 0.05zm0.16 -0.13c0,0.01 -0.01,0.03 -0.03,0.03l-0.1 0 -0.31 0 -1.05 0 -0.31 0 -0.1 0c-0.01,0 -0.03,-0.01 -0.03,-0.03l0 -0.34 0.16 0 0 0.18c0,0.01 0.01,0.03 0.03,0.03l1.57 0c0.01,0 0.03,-0.01 0.03,-0.03l0 -0.51c0.02,0.01 0.05,0.01 0.08,0.01 0.03,0 0.05,-0.01 0.08,-0.01l0 0.67zm-0.08 -0.71c-0.1,0 -0.18,-0.08 -0.18,-0.18 0,-0.1 0.08,-0.18 0.18,-0.18 0.1,0 0.18,0.08 0.18,0.18 0,0.1 -0.08,0.18 -0.18,0.18z"/>
   </g>
  </g>
 </g>
</svg>
