<svg width="20" height="20" viewBox="0 0 20 20" fill="none" xmlns="http://www.w3.org/2000/svg">
<g clip-path="url(#clip0_4050_19669)">
<path d="M2.5 7.50001C2.5 7.05798 2.67559 6.63406 2.98816 6.3215C3.30072 6.00894 3.72464 5.83334 4.16667 5.83334H15.8333C16.2754 5.83334 16.6993 6.00894 17.0118 6.3215C17.3244 6.63406 17.5 7.05798 17.5 7.50001V15C17.5 15.442 17.3244 15.866 17.0118 16.1785C16.6993 16.4911 16.2754 16.6667 15.8333 16.6667H4.16667C3.72464 16.6667 3.30072 16.4911 2.98816 16.1785C2.67559 15.866 2.5 15.442 2.5 15V7.50001Z" stroke="#0D0E11" stroke-width="1.5" stroke-linecap="round" stroke-linejoin="round"/>
<path d="M4.57142 12.8571C4.72913 12.8571 4.85713 12.7291 4.85713 12.5714V11.7143H5.71428C5.87199 11.7143 5.99999 11.5863 5.99999 11.4286C5.99999 11.2709 5.87199 11.1429 5.71428 11.1429H4.85713V10.5714H5.71428C5.87199 10.5714 5.99999 10.4434 5.99999 10.2857C5.99999 10.128 5.87199 10 5.71428 10H4.57142C4.41371 10 4.28571 10.128 4.28571 10.2857V12.5714C4.28571 12.7291 4.41371 12.8571 4.57142 12.8571Z" fill="#0D0E11"/>
<path d="M7.42855 12.8571C7.90113 12.8571 8.2857 12.4726 8.2857 12V11.4286C8.2857 11.2709 8.1577 11.1429 7.99998 11.1429C7.84227 11.1429 7.71427 11.2709 7.71427 11.4286V12C7.71427 12.1577 7.5857 12.2857 7.42855 12.2857C7.27141 12.2857 7.14284 12.1577 7.14284 12V11.4286C7.14284 11.2709 7.01484 11.1429 6.85713 11.1429C6.69941 11.1429 6.57141 11.2709 6.57141 11.4286V12C6.57141 12.4726 6.95598 12.8571 7.42855 12.8571Z" fill="#0D0E11"/>
<path d="M9.14283 12.8571C9.30055 12.8571 9.42855 12.7291 9.42855 12.5714V10.2857C9.42855 10.128 9.30055 10 9.14283 10C8.98512 10 8.85712 10.128 8.85712 10.2857V12.5714C8.85712 12.7291 8.98512 12.8571 9.14283 12.8571Z" fill="#0D0E11"/>
<path d="M10.2857 12.8571C10.4434 12.8571 10.5714 12.7291 10.5714 12.5714V10.2857C10.5714 10.128 10.4434 10 10.2857 10C10.128 10 10 10.128 10 10.2857V12.5714C10 12.7291 10.128 12.8571 10.2857 12.8571Z" fill="#0D0E11"/>
<path d="M12 12.8571C12.1577 12.8571 12.2857 12.7291 12.2857 12.5714V11.7143H12.8572V12.5714C12.8572 12.7291 12.9852 12.8571 13.1429 12.8571C13.3006 12.8571 13.4286 12.7291 13.4286 12.5714V10.2857C13.4286 10.128 13.3006 10 13.1429 10C12.9852 10 12.8572 10.128 12.8572 10.2857V11.1429H12.2857V10.2857C12.2857 10.128 12.1577 10 12 10C11.8423 10 11.7143 10.128 11.7143 10.2857V12.5714C11.7143 12.7291 11.8423 12.8571 12 12.8571Z" fill="#0D0E11"/>
<path d="M14.2857 12.8571H14.8571C15.3297 12.8571 15.7143 12.4726 15.7143 12V10.8571C15.7143 10.3846 15.3297 10 14.8571 10H14.2857C14.128 10 14 10.128 14 10.2857V12.5714C14 12.7291 14.128 12.8571 14.2857 12.8571ZM14.5714 10.5714H14.8571C15.0143 10.5714 15.1429 10.6994 15.1429 10.8571V12C15.1429 12.1577 15.0143 12.2857 14.8571 12.2857H14.5714V10.5714Z" fill="#0D0E11"/>
<path d="M13.3334 2.5L10 5.83333L6.66669 2.5" stroke="#0D0E11" stroke-width="1.5" stroke-linecap="round" stroke-linejoin="round"/>
</g>
<defs>
<clipPath id="clip0_4050_19669">
<rect width="20" height="20" fill="white"/>
</clipPath>
</defs>
</svg>
